<?xml version="1.0" encoding="UTF-8" standalone="no"?><svg xmlns="http://www.w3.org/2000/svg" xmlns:xlink="http://www.w3.org/1999/xlink" clip-rule="evenodd" stroke-miterlimit="4.00" viewBox="0 0 1024 768"><desc>SVG generated by Keynote</desc><defs></defs><g transform="matrix(1.00, 0.00, -0.00, -1.00, 0.0, 768.0)"><path d="M 0.0 768.0 L 1024.0 768.0 L 1024.0 0.0 L 0.0 0.0 Z M 0.0 768.0 " fill="#24282B"></path><text xml:space="preserve" font-family="OperatorMono-Medium" font-size="34.0" fill="#C494C4" transform="matrix(1.00, 0.00, -0.00, -1.00, 143.0, 495.0)">c</text><text xml:space="preserve" font-family="OperatorMono-Medium" font-size="34.0" fill="#C494C4" transform="matrix(1.00, 0.00, -0.00, -1.00, 161.7, 495.0)">o</text><text xml:space="preserve" font-family="OperatorMono-Medium" font-size="34.0" fill="#C494C4" transform="matrix(1.00, 0.00, -0.00, -1.00, 180.4, 495.0)">n</text><text xml:space="preserve" font-family="OperatorMono-Medium" font-size="34.0" fill="#C494C4" transform="matrix(1.00, 0.00, -0.00, -1.00, 199.1, 495.0)">s</text><text xml:space="preserve" font-family="OperatorMono-Medium" font-size="34.0" fill="#C494C4" transform="matrix(1.00, 0.00, -0.00, -1.00, 217.8, 495.0)">t</text><text xml:space="preserve" font-family="OperatorMono-Medium" font-size="34.0" fill="#FEFFFF" transform="matrix(1.00, 0.00, -0.00, -1.00, 236.5, 495.0)"> </text><text xml:space="preserve" font-family="OperatorMono-Medium" font-size="34.0" fill="#6699CC" transform="matrix(1.00, 0.00, -0.00, -1.00, 255.2, 495.0)">H</text><text xml:space="preserve" font-family="OperatorMono-Medium" font-size="34.0" fill="#6699CC" transform="matrix(1.00, 0.00, -0.00, -1.00, 273.9, 495.0)">e</text><text xml:space="preserve" font-family="OperatorMono-Medium" font-size="34.0" fill="#6699CC" transform="matrix(1.00, 0.00, -0.00, -1.00, 292.6, 495.0)">l</text><text xml:space="preserve" font-family="OperatorMono-Medium" font-size="34.0" fill="#6699CC" transform="matrix(1.00, 0.00, -0.00, -1.00, 311.3, 495.0)">l</text><text xml:space="preserve" font-family="OperatorMono-Medium" font-size="34.0" fill="#6699CC" transform="matrix(1.00, 0.00, -0.00, -1.00, 330.0, 495.0)">o</text><text xml:space="preserve" font-family="OperatorMono-Medium" font-size="34.0" fill="#6699CC" transform="matrix(1.00, 0.00, -0.00, -1.00, 348.7, 495.0)">B</text><text xml:space="preserve" font-family="OperatorMono-Medium" font-size="34.0" fill="#6699CC" transform="matrix(1.00, 0.00, -0.00, -1.00, 367.4, 495.0)">u</text><text xml:space="preserve" font-family="OperatorMono-Medium" font-size="34.0" fill="#6699CC" transform="matrix(1.00, 0.00, -0.00, -1.00, 386.1, 495.0)">t</text><text xml:space="preserve" font-family="OperatorMono-Medium" font-size="34.0" fill="#6699CC" transform="matrix(1.00, 0.00, -0.00, -1.00, 404.8, 495.0)">t</text><text xml:space="preserve" font-family="OperatorMono-Medium" font-size="34.0" fill="#6699CC" transform="matrix(1.00, 0.00, -0.00, -1.00, 423.5, 495.0)">o</text><text xml:space="preserve" font-family="OperatorMono-Medium" font-size="34.0" fill="#6699CC" transform="matrix(1.00, 0.00, -0.00, -1.00, 442.2, 495.0)">n</text><text xml:space="preserve" font-family="OperatorMono-Medium" font-size="34.0" fill="#FEFFFF" transform="matrix(1.00, 0.00, -0.00, -1.00, 460.9, 495.0)"> </text><text xml:space="preserve" font-family="OperatorMono-Medium" font-size="34.0" fill="#5EB3B3" transform="matrix(1.00, 0.00, -0.00, -1.00, 479.6, 495.0)">=</text><text xml:space="preserve" font-family="OperatorMono-Medium" font-size="34.0" fill="#5EB3B3" transform="matrix(1.00, 0.00, -0.00, -1.00, 498.3, 495.0)"> </text><text xml:space="preserve" font-family="OperatorMono-Medium" font-size="34.0" fill="#5EB3B3" transform="matrix(1.00, 0.00, -0.00, -1.00, 517.0, 495.0)">(</text><text xml:space="preserve" font-family="OperatorMono-Medium" font-size="34.0" fill="#5EB3B3" transform="matrix(1.00, 0.00, -0.00, -1.00, 535.7, 495.0)">)</text><text xml:space="preserve" font-family="OperatorMono-Medium" font-size="34.0" fill="#C494C4" transform="matrix(1.00, 0.00, -0.00, -1.00, 554.4, 495.0)"> </text><text xml:space="preserve" font-family="OperatorMono-Medium" font-size="34.0" fill="#C494C4" transform="matrix(1.00, 0.00, -0.00, -1.00, 573.1, 495.0)">=</text><text xml:space="preserve" font-family="OperatorMono-Medium" font-size="34.0" fill="#C494C4" transform="matrix(1.00, 0.00, -0.00, -1.00, 591.8, 495.0)">&gt;</text><text xml:space="preserve" font-family="OperatorMono-Medium" font-size="34.0" fill="#C494C4" transform="matrix(1.00, 0.00, -0.00, -1.00, 610.5, 495.0)"> </text><text xml:space="preserve" font-family="OperatorMono-Medium" font-size="34.0" fill="#FEFFFF" transform="matrix(1.00, 0.00, -0.00, -1.00, 629.2, 495.0)">(</text><text xml:space="preserve" font-family="OperatorMono-Medium" font-size="34.0" fill="#FEFFFF" transform="matrix(1.00, 0.00, -0.00, -1.00, 647.9, 495.0)"> </text><text xml:space="preserve" font-family="OperatorMono-Medium" font-size="34.0" fill="#5EB3B3" transform="matrix(1.00, 0.00, -0.00, -1.00, 161.0, 454.0)">&lt;</text><text xml:space="preserve" font-family="OperatorMono-Medium" font-size="34.0" fill="#EC5E67" transform="matrix(1.00, 0.00, -0.00, -1.00, 179.7, 454.0)">W</text><text xml:space="preserve" font-family="OperatorMono-Medium" font-size="34.0" fill="#EC5E67" transform="matrix(1.00, 0.00, -0.00, -1.00, 198.4, 454.0)">r</text><text xml:space="preserve" font-family="OperatorMono-Medium" font-size="34.0" fill="#EC5E67" transform="matrix(1.00, 0.00, -0.00, -1.00, 217.1, 454.0)">a</text><text xml:space="preserve" font-family="OperatorMono-Medium" font-size="34.0" fill="#EC5E67" transform="matrix(1.00, 0.00, -0.00, -1.00, 235.8, 454.0)">p</text><text xml:space="preserve" font-family="OperatorMono-Medium" font-size="34.0" fill="#EC5E67" transform="matrix(1.00, 0.00, -0.00, -1.00, 254.5, 454.0)">p</text><text xml:space="preserve" font-family="OperatorMono-Medium" font-size="34.0" fill="#EC5E67" transform="matrix(1.00, 0.00, -0.00, -1.00, 273.2, 454.0)">e</text><text xml:space="preserve" font-family="OperatorMono-Medium" font-size="34.0" fill="#EC5E67" transform="matrix(1.00, 0.00, -0.00, -1.00, 291.9, 454.0)">r</text><text xml:space="preserve" font-family="OperatorMono-Medium" font-size="34.0" fill="#5EB3B3" transform="matrix(1.00, 0.00, -0.00, -1.00, 310.6, 454.0)">&gt;</text><text xml:space="preserve" font-family="OperatorMono-Medium" font-size="34.0" fill="#5EB3B3" transform="matrix(1.00, 0.00, -0.00, -1.00, 329.3, 454.0)"> </text><text xml:space="preserve" font-family="OperatorMono-Medium" font-size="34.0" fill="#5EB3B3" transform="matrix(1.00, 0.00, -0.00, -1.00, 179.0, 413.0)"> </text><text xml:space="preserve" font-family="OperatorMono-Medium" font-size="34.0" fill="#5EB3B3" transform="matrix(1.00, 0.00, -0.00, -1.00, 197.7, 413.0)">&lt;</text><text xml:space="preserve" font-family="OperatorMono-Medium" font-size="34.0" fill="#EC5E67" transform="matrix(1.00, 0.00, -0.00, -1.00, 216.4, 413.0)">B</text><text xml:space="preserve" font-family="OperatorMono-Medium" font-size="34.0" fill="#EC5E67" transform="matrix(1.00, 0.00, -0.00, -1.00, 235.1, 413.0)">u</text><text xml:space="preserve" font-family="OperatorMono-Medium" font-size="34.0" fill="#EC5E67" transform="matrix(1.00, 0.00, -0.00, -1.00, 253.8, 413.0)">t</text><text xml:space="preserve" font-family="OperatorMono-Medium" font-size="34.0" fill="#EC5E67" transform="matrix(1.00, 0.00, -0.00, -1.00, 272.5, 413.0)">t</text><text xml:space="preserve" font-family="OperatorMono-Medium" font-size="34.0" fill="#EC5E67" transform="matrix(1.00, 0.00, -0.00, -1.00, 291.2, 413.0)">o</text><text xml:space="preserve" font-family="OperatorMono-Medium" font-size="34.0" fill="#EC5E67" transform="matrix(1.00, 0.00, -0.00, -1.00, 309.9, 413.0)">n</text><text xml:space="preserve" font-family="OperatorMono-Medium" font-size="34.0" fill="#5EB3B3" transform="matrix(1.00, 0.00, -0.00, -1.00, 328.6, 413.0)">&gt;</text><text xml:space="preserve" font-family="OperatorMono-Medium" font-size="34.0" fill="#FEFFFF" transform="matrix(1.00, 0.00, -0.00, -1.00, 347.3, 413.0)">H</text><text xml:space="preserve" font-family="OperatorMono-Medium" font-size="34.0" fill="#FEFFFF" transform="matrix(1.00, 0.00, -0.00, -1.00, 366.0, 413.0)">e</text><text xml:space="preserve" font-family="OperatorMono-Medium" font-size="34.0" fill="#FEFFFF" transform="matrix(1.00, 0.00, -0.00, -1.00, 384.7, 413.0)">l</text><text xml:space="preserve" font-family="OperatorMono-Medium" font-size="34.0" fill="#FEFFFF" transform="matrix(1.00, 0.00, -0.00, -1.00, 403.4, 413.0)">l</text><text xml:space="preserve" font-family="OperatorMono-Medium" font-size="34.0" fill="#FEFFFF" transform="matrix(1.00, 0.00, -0.00, -1.00, 422.1, 413.0)">o</text><text xml:space="preserve" font-family="OperatorMono-Medium" font-size="34.0" fill="#FEFFFF" transform="matrix(1.00, 0.00, -0.00, -1.00, 440.8, 413.0)"> </text><text xml:space="preserve" font-family="OperatorMono-Medium" font-size="34.0" fill="#FEFFFF" transform="matrix(1.00, 0.00, -0.00, -1.00, 459.5, 413.0)">N</text><text xml:space="preserve" font-family="OperatorMono-Medium" font-size="34.0" fill="#FEFFFF" transform="matrix(1.00, 0.00, -0.00, -1.00, 478.2, 413.0)">a</text><text xml:space="preserve" font-family="OperatorMono-Medium" font-size="34.0" fill="#FEFFFF" transform="matrix(1.00, 0.00, -0.00, -1.00, 496.9, 413.0)">s</text><text xml:space="preserve" font-family="OperatorMono-Medium" font-size="34.0" fill="#FEFFFF" transform="matrix(1.00, 0.00, -0.00, -1.00, 515.6, 413.0)">h</text><text xml:space="preserve" font-family="OperatorMono-Medium" font-size="34.0" fill="#FEFFFF" transform="matrix(1.00, 0.00, -0.00, -1.00, 534.3, 413.0)">R</text><text xml:space="preserve" font-family="OperatorMono-Medium" font-size="34.0" fill="#FEFFFF" transform="matrix(1.00, 0.00, -0.00, -1.00, 553.0, 413.0)">e</text><text xml:space="preserve" font-family="OperatorMono-Medium" font-size="34.0" fill="#FEFFFF" transform="matrix(1.00, 0.00, -0.00, -1.00, 571.7, 413.0)">a</text><text xml:space="preserve" font-family="OperatorMono-Medium" font-size="34.0" fill="#FEFFFF" transform="matrix(1.00, 0.00, -0.00, -1.00, 590.4, 413.0)">c</text><text xml:space="preserve" font-family="OperatorMono-Medium" font-size="34.0" fill="#FEFFFF" transform="matrix(1.00, 0.00, -0.00, -1.00, 609.1, 413.0)">t</text><text xml:space="preserve" font-family="OperatorMono-Medium" font-size="34.0" fill="#FEFFFF" transform="matrix(1.00, 0.00, -0.00, -1.00, 627.8, 413.0)">!</text><text xml:space="preserve" font-family="OperatorMono-Medium" font-size="34.0" fill="#5EB3B3" transform="matrix(1.00, 0.00, -0.00, -1.00, 646.5, 413.0)">&lt;</text><text xml:space="preserve" font-family="OperatorMono-Medium" font-size="34.0" fill="#5EB3B3" transform="matrix(1.00, 0.00, -0.00, -1.00, 665.2, 413.0)">/</text><text xml:space="preserve" font-family="OperatorMono-Medium" font-size="34.0" fill="#EC5E67" transform="matrix(1.00, 0.00, -0.00, -1.00, 683.9, 413.0)">B</text><text xml:space="preserve" font-family="OperatorMono-Medium" font-size="34.0" fill="#EC5E67" transform="matrix(1.00, 0.00, -0.00, -1.00, 702.6, 413.0)">u</text><text xml:space="preserve" font-family="OperatorMono-Medium" font-size="34.0" fill="#EC5E67" transform="matrix(1.00, 0.00, -0.00, -1.00, 721.3, 413.0)">t</text><text xml:space="preserve" font-family="OperatorMono-Medium" font-size="34.0" fill="#EC5E67" transform="matrix(1.00, 0.00, -0.00, -1.00, 740.0, 413.0)">t</text><text xml:space="preserve" font-family="OperatorMono-Medium" font-size="34.0" fill="#EC5E67" transform="matrix(1.00, 0.00, -0.00, -1.00, 758.7, 413.0)">o</text><text xml:space="preserve" font-family="OperatorMono-Medium" font-size="34.0" fill="#EC5E67" transform="matrix(1.00, 0.00, -0.00, -1.00, 777.4, 413.0)">n</text><text xml:space="preserve" font-family="OperatorMono-Medium" font-size="34.0" fill="#5EB3B3" transform="matrix(1.00, 0.00, -0.00, -1.00, 796.1, 413.0)">&gt;</text><text xml:space="preserve" font-family="OperatorMono-Medium" font-size="34.0" fill="#FEFFFF" transform="matrix(1.00, 0.00, -0.00, -1.00, 814.8, 413.0)"> </text><text xml:space="preserve" font-family="OperatorMono-Medium" font-size="34.0" fill="#5EB3B3" transform="matrix(1.00, 0.00, -0.00, -1.00, 161.0, 372.0)">&lt;</text><text xml:space="preserve" font-family="OperatorMono-Medium" font-size="34.0" fill="#5EB3B3" transform="matrix(1.00, 0.00, -0.00, -1.00, 179.7, 372.0)">/</text><text xml:space="preserve" font-family="OperatorMono-Medium" font-size="34.0" fill="#EC5E67" transform="matrix(1.00, 0.00, -0.00, -1.00, 198.4, 372.0)">W</text><text xml:space="preserve" font-family="OperatorMono-Medium" font-size="34.0" fill="#EC5E67" transform="matrix(1.00, 0.00, -0.00, -1.00, 217.1, 372.0)">r</text><text xml:space="preserve" font-family="OperatorMono-Medium" font-size="34.0" fill="#EC5E67" transform="matrix(1.00, 0.00, -0.00, -1.00, 235.8, 372.0)">a</text><text xml:space="preserve" font-family="OperatorMono-Medium" font-size="34.0" fill="#EC5E67" transform="matrix(1.00, 0.00, -0.00, -1.00, 254.5, 372.0)">p</text><text xml:space="preserve" font-family="OperatorMono-Medium" font-size="34.0" fill="#EC5E67" transform="matrix(1.00, 0.00, -0.00, -1.00, 273.2, 372.0)">p</text><text xml:space="preserve" font-family="OperatorMono-Medium" font-size="34.0" fill="#EC5E67" transform="matrix(1.00, 0.00, -0.00, -1.00, 291.9, 372.0)">e</text><text xml:space="preserve" font-family="OperatorMono-Medium" font-size="34.0" fill="#EC5E67" transform="matrix(1.00, 0.00, -0.00, -1.00, 310.6, 372.0)">r</text><text xml:space="preserve" font-family="OperatorMono-Medium" font-size="34.0" fill="#5EB3B3" transform="matrix(1.00, 0.00, -0.00, -1.00, 329.3, 372.0)">&gt;</text><text xml:space="preserve" font-family="OperatorMono-Medium" font-size="34.0" fill="#FEFFFF" transform="matrix(1.00, 0.00, -0.00, -1.00, 348.0, 372.0)"> </text><text xml:space="preserve" font-family="OperatorMono-Medium" font-size="34.0" fill="#FEFFFF" transform="matrix(1.00, 0.00, -0.00, -1.00, 143.0, 331.0)">)</text><text xml:space="preserve" font-family="OperatorMono-Medium" font-size="34.0" fill="#FEFFFF" transform="matrix(1.00, 0.00, -0.00, -1.00, 161.7, 331.0)">;</text><text xml:space="preserve" font-family="OperatorMono-Medium" font-size="34.0" fill="#FEFFFF" transform="matrix(1.00, 0.00, -0.00, -1.00, 180.4, 331.0)"> </text><text xml:space="preserve" font-family="OperatorMono-Medium" font-size="34.0" fill="#5EB3B3" transform="matrix(1.00, 0.00, -0.00, -1.00, 143.0, 249.0)">e</text><text xml:space="preserve" font-family="OperatorMono-Medium" font-size="34.0" fill="#5EB3B3" transform="matrix(1.00, 0.00, -0.00, -1.00, 161.7, 249.0)">x</text><text xml:space="preserve" font-family="OperatorMono-Medium" font-size="34.0" fill="#5EB3B3" transform="matrix(1.00, 0.00, -0.00, -1.00, 180.4, 249.0)">p</text><text xml:space="preserve" font-family="OperatorMono-Medium" font-size="34.0" fill="#5EB3B3" transform="matrix(1.00, 0.00, -0.00, -1.00, 199.1, 249.0)">o</text><text xml:space="preserve" font-family="OperatorMono-Medium" font-size="34.0" fill="#5EB3B3" transform="matrix(1.00, 0.00, -0.00, -1.00, 217.8, 249.0)">r</text><text xml:space="preserve" font-family="OperatorMono-Medium" font-size="34.0" fill="#5EB3B3" transform="matrix(1.00, 0.00, -0.00, -1.00, 236.5, 249.0)">t</text><text xml:space="preserve" font-family="OperatorMono-Medium" font-size="34.0" fill="#FEFFFF" transform="matrix(1.00, 0.00, -0.00, -1.00, 255.2, 249.0)"> </text><text xml:space="preserve" font-family="OperatorMono-Medium" font-size="34.0" fill="#C494C4" transform="matrix(1.00, 0.00, -0.00, -1.00, 273.9, 249.0)">d</text><text xml:space="preserve" font-family="OperatorMono-Medium" font-size="34.0" fill="#C494C4" transform="matrix(1.00, 0.00, -0.00, -1.00, 292.6, 249.0)">e</text><text xml:space="preserve" font-family="OperatorMono-Medium" font-size="34.0" fill="#C494C4" transform="matrix(1.00, 0.00, -0.00, -1.00, 311.3, 249.0)">f</text><text xml:space="preserve" font-family="OperatorMono-Medium" font-size="34.0" fill="#C494C4" transform="matrix(1.00, 0.00, -0.00, -1.00, 330.0, 249.0)">a</text><text xml:space="preserve" font-family="OperatorMono-Medium" font-size="34.0" fill="#C494C4" transform="matrix(1.00, 0.00, -0.00, -1.00, 348.7, 249.0)">u</text><text xml:space="preserve" font-family="OperatorMono-Medium" font-size="34.0" fill="#C494C4" transform="matrix(1.00, 0.00, -0.00, -1.00, 367.4, 249.0)">l</text><text xml:space="preserve" font-family="OperatorMono-Medium" font-size="34.0" fill="#C494C4" transform="matrix(1.00, 0.00, -0.00, -1.00, 386.1, 249.0)">t</text><text xml:space="preserve" font-family="OperatorMono-Medium" font-size="34.0" fill="#FEFFFF" transform="matrix(1.00, 0.00, -0.00, -1.00, 404.8, 249.0)"> </text><text xml:space="preserve" font-family="OperatorMono-Medium" font-size="34.0" fill="#FEFFFF" transform="matrix(1.00, 0.00, -0.00, -1.00, 423.5, 249.0)">H</text><text xml:space="preserve" font-family="OperatorMono-Medium" font-size="34.0" fill="#FEFFFF" transform="matrix(1.00, 0.00, -0.00, -1.00, 442.2, 249.0)">e</text><text xml:space="preserve" font-family="OperatorMono-Medium" font-size="34.0" fill="#FEFFFF" transform="matrix(1.00, 0.00, -0.00, -1.00, 460.9, 249.0)">l</text><text xml:space="preserve" font-family="OperatorMono-Medium" font-size="34.0" fill="#FEFFFF" transform="matrix(1.00, 0.00, -0.00, -1.00, 479.6, 249.0)">l</text><text xml:space="preserve" font-family="OperatorMono-Medium" font-size="34.0" fill="#FEFFFF" transform="matrix(1.00, 0.00, -0.00, -1.00, 498.3, 249.0)">o</text><text xml:space="preserve" font-family="OperatorMono-Medium" font-size="34.0" fill="#FEFFFF" transform="matrix(1.00, 0.00, -0.00, -1.00, 517.0, 249.0)">B</text><text xml:space="preserve" font-family="OperatorMono-Medium" font-size="34.0" fill="#FEFFFF" transform="matrix(1.00, 0.00, -0.00, -1.00, 535.7, 249.0)">u</text><text xml:space="preserve" font-family="OperatorMono-Medium" font-size="34.0" fill="#FEFFFF" transform="matrix(1.00, 0.00, -0.00, -1.00, 554.4, 249.0)">t</text><text xml:space="preserve" font-family="OperatorMono-Medium" font-size="34.0" fill="#FEFFFF" transform="matrix(1.00, 0.00, -0.00, -1.00, 573.1, 249.0)">t</text><text xml:space="preserve" font-family="OperatorMono-Medium" font-size="34.0" fill="#FEFFFF" transform="matrix(1.00, 0.00, -0.00, -1.00, 591.8, 249.0)">o</text><text xml:space="preserve" font-family="OperatorMono-Medium" font-size="34.0" fill="#FEFFFF" transform="matrix(1.00, 0.00, -0.00, -1.00, 610.5, 249.0)">n</text><text xml:space="preserve" font-family="OperatorMono-Medium" font-size="34.0" fill="#5EB3B3" transform="matrix(1.00, 0.00, -0.00, -1.00, 629.2, 249.0)">;</text></g></svg>