<?xml version="1.0" encoding="UTF-8" standalone="no"?><svg xmlns="http://www.w3.org/2000/svg" xmlns:xlink="http://www.w3.org/1999/xlink" clip-rule="evenodd" stroke-miterlimit="4.00" viewBox="0 0 1024 768"><desc>SVG generated by Keynote</desc><defs></defs><g transform="matrix(1.00, 0.00, -0.00, -1.00, 0.0, 768.0)"><path d="M 0.0 768.0 L 1024.0 768.0 L 1024.0 0.0 L 0.0 0.0 Z M 0.0 768.0 " fill="#0C1B35"></path><text xml:space="preserve" font-family="OperatorPro-Bold" font-weight="bold" font-size="44.0" fill="#FEFFFF" transform="matrix(1.00, 0.00, -0.00, -1.00, 125.0, 356.0)">$</text><text xml:space="preserve" font-family="OperatorPro-Bold" font-weight="bold" font-size="44.0" fill="#FEFFFF" transform="matrix(1.00, 0.00, -0.00, -1.00, 152.3, 356.0)"> </text><text xml:space="preserve" font-family="OperatorPro-Bold" font-weight="bold" font-size="44.0" fill="#FEFFFF" transform="matrix(1.00, 0.00, -0.00, -1.00, 165.7, 356.0)">n</text><text xml:space="preserve" font-family="OperatorPro-Bold" font-weight="bold" font-size="44.0" fill="#FEFFFF" transform="matrix(1.00, 0.00, -0.00, -1.00, 194.3, 356.0)">p</text><text xml:space="preserve" font-family="OperatorPro-Bold" font-weight="bold" font-size="44.0" fill="#FEFFFF" transform="matrix(1.00, 0.00, -0.00, -1.00, 222.4, 356.0)">m</text><text xml:space="preserve" font-family="OperatorPro-Bold" font-weight="bold" font-size="44.0" fill="#FEFFFF" transform="matrix(1.00, 0.00, -0.00, -1.00, 263.2, 356.0)"> </text><text xml:space="preserve" font-family="OperatorPro-Bold" font-weight="bold" font-size="44.0" fill="#FEFFFF" transform="matrix(1.00, 0.00, -0.00, -1.00, 276.6, 356.0)">i</text><text xml:space="preserve" font-family="OperatorPro-Bold" font-weight="bold" font-size="44.0" fill="#FEFFFF" transform="matrix(1.00, 0.00, -0.00, -1.00, 300.2, 356.0)">n</text><text xml:space="preserve" font-family="OperatorPro-Bold" font-weight="bold" font-size="44.0" fill="#FEFFFF" transform="matrix(1.00, 0.00, -0.00, -1.00, 328.8, 356.0)">s</text><text xml:space="preserve" font-family="OperatorPro-Bold" font-weight="bold" font-size="44.0" fill="#FEFFFF" transform="matrix(1.00, 0.00, -0.00, -1.00, 351.5, 356.0)">t</text><text xml:space="preserve" font-family="OperatorPro-Bold" font-weight="bold" font-size="44.0" fill="#FEFFFF" transform="matrix(1.00, 0.00, -0.00, -1.00, 373.5, 356.0)">a</text><text xml:space="preserve" font-family="OperatorPro-Bold" font-weight="bold" font-size="44.0" fill="#FEFFFF" transform="matrix(1.00, 0.00, -0.00, -1.00, 399.8, 356.0)">l</text><text xml:space="preserve" font-family="OperatorPro-Bold" font-weight="bold" font-size="44.0" fill="#FEFFFF" transform="matrix(1.00, 0.00, -0.00, -1.00, 421.8, 356.0)">l</text><text xml:space="preserve" font-family="OperatorPro-Bold" font-weight="bold" font-size="44.0" fill="#FEFFFF" transform="matrix(1.00, 0.00, -0.00, -1.00, 444.2, 356.0)"> </text><text xml:space="preserve" font-family="OperatorPro-Bold" font-weight="bold" font-size="44.0" fill="#FEFFFF" transform="matrix(1.00, 0.00, -0.00, -1.00, 457.6, 356.0)">s</text><text xml:space="preserve" font-family="OperatorPro-Bold" font-weight="bold" font-size="44.0" fill="#FEFFFF" transform="matrix(1.00, 0.00, -0.00, -1.00, 480.3, 356.0)">t</text><text xml:space="preserve" font-family="OperatorPro-Bold" font-weight="bold" font-size="44.0" fill="#FEFFFF" transform="matrix(1.00, 0.00, -0.00, -1.00, 502.5, 356.0)">y</text><text xml:space="preserve" font-family="OperatorPro-Bold" font-weight="bold" font-size="44.0" fill="#FEFFFF" transform="matrix(1.00, 0.00, -0.00, -1.00, 528.1, 356.0)">l</text><text xml:space="preserve" font-family="OperatorPro-Bold" font-weight="bold" font-size="44.0" fill="#FEFFFF" transform="matrix(1.00, 0.00, -0.00, -1.00, 549.7, 356.0)">e</text><text xml:space="preserve" font-family="OperatorPro-Bold" font-weight="bold" font-size="44.0" fill="#FEFFFF" transform="matrix(1.00, 0.00, -0.00, -1.00, 575.8, 356.0)">d</text><text xml:space="preserve" font-family="OperatorPro-Bold" font-weight="bold" font-size="44.0" fill="#FEFFFF" transform="matrix(1.00, 0.00, -0.00, -1.00, 603.9, 356.0)">-</text><text xml:space="preserve" font-family="OperatorPro-Bold" font-weight="bold" font-size="44.0" fill="#FEFFFF" transform="matrix(1.00, 0.00, -0.00, -1.00, 623.3, 356.0)">c</text><text xml:space="preserve" font-family="OperatorPro-Bold" font-weight="bold" font-size="44.0" fill="#FEFFFF" transform="matrix(1.00, 0.00, -0.00, -1.00, 645.9, 356.0)">o</text><text xml:space="preserve" font-family="OperatorPro-Bold" font-weight="bold" font-size="44.0" fill="#FEFFFF" transform="matrix(1.00, 0.00, -0.00, -1.00, 674.3, 356.0)">m</text><text xml:space="preserve" font-family="OperatorPro-Bold" font-weight="bold" font-size="44.0" fill="#FEFFFF" transform="matrix(1.00, 0.00, -0.00, -1.00, 715.1, 356.0)">p</text><text xml:space="preserve" font-family="OperatorPro-Bold" font-weight="bold" font-size="44.0" fill="#FEFFFF" transform="matrix(1.00, 0.00, -0.00, -1.00, 743.1, 356.0)">o</text><text xml:space="preserve" font-family="OperatorPro-Bold" font-weight="bold" font-size="44.0" fill="#FEFFFF" transform="matrix(1.00, 0.00, -0.00, -1.00, 771.5, 356.0)">n</text><text xml:space="preserve" font-family="OperatorPro-Bold" font-weight="bold" font-size="44.0" fill="#FEFFFF" transform="matrix(1.00, 0.00, -0.00, -1.00, 800.1, 356.0)">e</text><text xml:space="preserve" font-family="OperatorPro-Bold" font-weight="bold" font-size="44.0" fill="#FEFFFF" transform="matrix(1.00, 0.00, -0.00, -1.00, 826.2, 356.0)">n</text><text xml:space="preserve" font-family="OperatorPro-Bold" font-weight="bold" font-size="44.0" fill="#FEFFFF" transform="matrix(1.00, 0.00, -0.00, -1.00, 854.8, 356.0)">t</text><text xml:space="preserve" font-family="OperatorPro-Bold" font-weight="bold" font-size="44.0" fill="#FEFFFF" transform="matrix(1.00, 0.00, -0.00, -1.00, 877.0, 356.0)">s</text></g></svg>