<?xml version="1.0" encoding="UTF-8" standalone="no"?><svg xmlns="http://www.w3.org/2000/svg" xmlns:xlink="http://www.w3.org/1999/xlink" clip-rule="evenodd" stroke-miterlimit="4.00" viewBox="0 0 391 48"><desc>SVG generated by Keynote</desc><defs></defs><g transform="matrix(1.00, 0.00, -0.00, -1.00, 0.0, 48.0)"><image xlink:href="528CFC9C0D223AE6FB8EF5A352367438.png" width="20.00" height="20.00" transform="matrix(0.99, 0.00, -0.00, -0.99, 1.0, 34.2)"></image><text xml:space="preserve" font-family="OperatorPro-Bold" font-weight="bold" font-size="44.0" fill="#EC5E67" transform="matrix(1.00, 0.00, -0.00, -1.00, 44.0, 11.0)">S</text><text xml:space="preserve" font-family="OperatorPro-Bold" font-weight="bold" font-size="44.0" fill="#EC5E67" transform="matrix(1.00, 0.00, -0.00, -1.00, 69.9, 11.0)">p</text><text xml:space="preserve" font-family="OperatorPro-Bold" font-weight="bold" font-size="44.0" fill="#EC5E67" transform="matrix(1.00, 0.00, -0.00, -1.00, 98.8, 11.0)">e</text><text xml:space="preserve" font-family="OperatorPro-Bold" font-weight="bold" font-size="44.0" fill="#EC5E67" transform="matrix(1.00, 0.00, -0.00, -1.00, 125.8, 11.0)">c</text><text xml:space="preserve" font-family="OperatorPro-Bold" font-weight="bold" font-size="44.0" fill="#EC5E67" transform="matrix(1.00, 0.00, -0.00, -1.00, 149.7, 11.0)">i</text><text xml:space="preserve" font-family="OperatorPro-Bold" font-weight="bold" font-size="44.0" fill="#EC5E67" transform="matrix(1.00, 0.00, -0.00, -1.00, 174.2, 11.0)">a</text><text xml:space="preserve" font-family="OperatorPro-Bold" font-weight="bold" font-size="44.0" fill="#EC5E67" transform="matrix(1.00, 0.00, -0.00, -1.00, 201.4, 11.0)">l</text><text xml:space="preserve" font-family="OperatorPro-Book" font-size="44.0" fill="#FEFFFF" transform="matrix(1.00, 0.00, -0.00, -1.00, 224.7, 11.0)"> </text><text xml:space="preserve" font-family="OperatorPro-Book" font-size="44.0" fill="#FEFFFF" transform="matrix(1.00, 0.00, -0.00, -1.00, 239.1, 11.0)">s</text><text xml:space="preserve" font-family="OperatorPro-Book" font-size="44.0" fill="#FEFFFF" transform="matrix(1.00, 0.00, -0.00, -1.00, 262.5, 11.0)">y</text><text xml:space="preserve" font-family="OperatorPro-Book" font-size="44.0" fill="#FEFFFF" transform="matrix(1.00, 0.00, -0.00, -1.00, 288.6, 11.0)">n</text><text xml:space="preserve" font-family="OperatorPro-Book" font-size="44.0" fill="#FEFFFF" transform="matrix(1.00, 0.00, -0.00, -1.00, 317.8, 11.0)">t</text><text xml:space="preserve" font-family="OperatorPro-Book" font-size="44.0" fill="#FEFFFF" transform="matrix(1.00, 0.00, -0.00, -1.00, 339.9, 11.0)">a</text><text xml:space="preserve" font-family="OperatorPro-Book" font-size="44.0" fill="#FEFFFF" transform="matrix(1.00, 0.00, -0.00, -1.00, 366.4, 11.0)">x</text></g></svg>