<?xml version="1.0" encoding="UTF-8" standalone="no"?><svg xmlns="http://www.w3.org/2000/svg" xmlns:xlink="http://www.w3.org/1999/xlink" clip-rule="evenodd" stroke-miterlimit="4.00" viewBox="0 0 524 203"><desc>SVG generated by Keynote</desc><defs></defs><g transform="matrix(1.00, 0.00, -0.00, -1.00, 0.0, 203.0)"><image xlink:href="../../DF766245-F28D-4A51-8117-5476895BD27B/assets/528CFC9C0D223AE6FB8EF5A352367438.png" width="20.00" height="20.00" transform="matrix(0.99, 0.00, -0.00, -0.99, 1.0, 189.2)"></image><text xml:space="preserve" font-family="OperatorPro-Bold" font-weight="bold" font-size="44.0" fill="#EC5E67" transform="matrix(1.00, 0.00, -0.00, -1.00, 44.0, 166.0)">S</text><text xml:space="preserve" font-family="OperatorPro-Bold" font-weight="bold" font-size="44.0" fill="#EC5E67" transform="matrix(1.00, 0.00, -0.00, -1.00, 69.9, 166.0)">p</text><text xml:space="preserve" font-family="OperatorPro-Bold" font-weight="bold" font-size="44.0" fill="#EC5E67" transform="matrix(1.00, 0.00, -0.00, -1.00, 98.8, 166.0)">e</text><text xml:space="preserve" font-family="OperatorPro-Bold" font-weight="bold" font-size="44.0" fill="#EC5E67" transform="matrix(1.00, 0.00, -0.00, -1.00, 125.8, 166.0)">c</text><text xml:space="preserve" font-family="OperatorPro-Bold" font-weight="bold" font-size="44.0" fill="#EC5E67" transform="matrix(1.00, 0.00, -0.00, -1.00, 149.7, 166.0)">i</text><text xml:space="preserve" font-family="OperatorPro-Bold" font-weight="bold" font-size="44.0" fill="#EC5E67" transform="matrix(1.00, 0.00, -0.00, -1.00, 174.2, 166.0)">a</text><text xml:space="preserve" font-family="OperatorPro-Bold" font-weight="bold" font-size="44.0" fill="#EC5E67" transform="matrix(1.00, 0.00, -0.00, -1.00, 201.4, 166.0)">l</text><text xml:space="preserve" font-family="OperatorPro-Book" font-size="44.0" fill="#FEFFFF" transform="matrix(1.00, 0.00, -0.00, -1.00, 224.7, 166.0)"> </text><text xml:space="preserve" font-family="OperatorPro-Book" font-size="44.0" fill="#FEFFFF" transform="matrix(1.00, 0.00, -0.00, -1.00, 239.1, 166.0)">s</text><text xml:space="preserve" font-family="OperatorPro-Book" font-size="44.0" fill="#FEFFFF" transform="matrix(1.00, 0.00, -0.00, -1.00, 262.5, 166.0)">y</text><text xml:space="preserve" font-family="OperatorPro-Book" font-size="44.0" fill="#FEFFFF" transform="matrix(1.00, 0.00, -0.00, -1.00, 288.6, 166.0)">n</text><text xml:space="preserve" font-family="OperatorPro-Book" font-size="44.0" fill="#FEFFFF" transform="matrix(1.00, 0.00, -0.00, -1.00, 317.8, 166.0)">t</text><text xml:space="preserve" font-family="OperatorPro-Book" font-size="44.0" fill="#FEFFFF" transform="matrix(1.00, 0.00, -0.00, -1.00, 339.9, 166.0)">a</text><text xml:space="preserve" font-family="OperatorPro-Book" font-size="44.0" fill="#FEFFFF" transform="matrix(1.00, 0.00, -0.00, -1.00, 366.4, 166.0)">x</text><text xml:space="preserve" font-family="OperatorPro-Book" font-size="44.0" fill="#FEFFFF" transform="matrix(1.00, 0.00, -0.00, -1.00, 392.6, 166.0)"> </text><image xlink:href="../../DF766245-F28D-4A51-8117-5476895BD27B/assets/528CFC9C0D223AE6FB8EF5A352367438.png" width="20.00" height="20.00" transform="matrix(0.99, 0.00, -0.00, -0.99, 1.0, 111.2)"></image><text xml:space="preserve" font-family="OperatorPro-Bold" font-weight="bold" font-size="44.0" fill="#EC5E67" transform="matrix(1.00, 0.00, -0.00, -1.00, 44.0, 88.0)">N</text><text xml:space="preserve" font-family="OperatorPro-Bold" font-weight="bold" font-size="44.0" fill="#EC5E67" transform="matrix(1.00, 0.00, -0.00, -1.00, 77.4, 88.0)">o</text><text xml:space="preserve" font-family="OperatorPro-Book" font-size="44.0" fill="#FEFFFF" transform="matrix(1.00, 0.00, -0.00, -1.00, 106.6, 88.0)"> </text><text xml:space="preserve" font-family="OperatorPro-Book" font-size="44.0" fill="#FEFFFF" transform="matrix(1.00, 0.00, -0.00, -1.00, 121.0, 88.0)">m</text><text xml:space="preserve" font-family="OperatorPro-Book" font-size="44.0" fill="#FEFFFF" transform="matrix(1.00, 0.00, -0.00, -1.00, 162.1, 88.0)">e</text><text xml:space="preserve" font-family="OperatorPro-Book" font-size="44.0" fill="#FEFFFF" transform="matrix(1.00, 0.00, -0.00, -1.00, 188.5, 88.0)">d</text><text xml:space="preserve" font-family="OperatorPro-Book" font-size="44.0" fill="#FEFFFF" transform="matrix(1.00, 0.00, -0.00, -1.00, 216.8, 88.0)">i</text><text xml:space="preserve" font-family="OperatorPro-Book" font-size="44.0" fill="#FEFFFF" transform="matrix(1.00, 0.00, -0.00, -1.00, 239.9, 88.0)">a</text><text xml:space="preserve" font-family="OperatorPro-Book" font-size="44.0" fill="#FEFFFF" transform="matrix(1.00, 0.00, -0.00, -1.00, 266.5, 88.0)"> </text><text xml:space="preserve" font-family="OperatorPro-Book" font-size="44.0" fill="#FEFFFF" transform="matrix(1.00, 0.00, -0.00, -1.00, 280.9, 88.0)">q</text><text xml:space="preserve" font-family="OperatorPro-Book" font-size="44.0" fill="#FEFFFF" transform="matrix(1.00, 0.00, -0.00, -1.00, 309.3, 88.0)">u</text><text xml:space="preserve" font-family="OperatorPro-Book" font-size="44.0" fill="#FEFFFF" transform="matrix(1.00, 0.00, -0.00, -1.00, 338.4, 88.0)">e</text><text xml:space="preserve" font-family="OperatorPro-Book" font-size="44.0" fill="#FEFFFF" transform="matrix(1.00, 0.00, -0.00, -1.00, 364.5, 88.0)">r</text><text xml:space="preserve" font-family="OperatorPro-Book" font-size="44.0" fill="#FEFFFF" transform="matrix(1.00, 0.00, -0.00, -1.00, 389.7, 88.0)">i</text><text xml:space="preserve" font-family="OperatorPro-Book" font-size="44.0" fill="#FEFFFF" transform="matrix(1.00, 0.00, -0.00, -1.00, 412.5, 88.0)">e</text><text xml:space="preserve" font-family="OperatorPro-Book" font-size="44.0" fill="#FEFFFF" transform="matrix(1.00, 0.00, -0.00, -1.00, 438.8, 88.0)">s</text><text xml:space="preserve" font-family="OperatorPro-Book" font-size="44.0" fill="#FEFFFF" transform="matrix(1.00, 0.00, -0.00, -1.00, 462.4, 88.0)"> </text><image xlink:href="../../DF766245-F28D-4A51-8117-5476895BD27B/assets/528CFC9C0D223AE6FB8EF5A352367438.png" width="20.00" height="20.00" transform="matrix(0.99, 0.00, -0.00, -0.99, 1.0, 33.2)"></image><text xml:space="preserve" font-family="OperatorPro-Bold" font-weight="bold" font-size="44.0" fill="#EC5E67" transform="matrix(1.00, 0.00, -0.00, -1.00, 44.0, 10.0)">N</text><text xml:space="preserve" font-family="OperatorPro-Bold" font-weight="bold" font-size="44.0" fill="#EC5E67" transform="matrix(1.00, 0.00, -0.00, -1.00, 77.4, 10.0)">o</text><text xml:space="preserve" font-family="OperatorPro-Book" font-size="44.0" fill="#FEFFFF" transform="matrix(1.00, 0.00, -0.00, -1.00, 106.6, 10.0)"> </text><text xml:space="preserve" font-family="OperatorPro-Book" font-size="44.0" fill="#FEFFFF" transform="matrix(1.00, 0.00, -0.00, -1.00, 121.0, 10.0)">p</text><text xml:space="preserve" font-family="OperatorPro-Book" font-size="44.0" fill="#FEFFFF" transform="matrix(1.00, 0.00, -0.00, -1.00, 149.2, 10.0)">s</text><text xml:space="preserve" font-family="OperatorPro-Book" font-size="44.0" fill="#FEFFFF" transform="matrix(1.00, 0.00, -0.00, -1.00, 172.6, 10.0)">e</text><text xml:space="preserve" font-family="OperatorPro-Book" font-size="44.0" fill="#FEFFFF" transform="matrix(1.00, 0.00, -0.00, -1.00, 199.0, 10.0)">u</text><text xml:space="preserve" font-family="OperatorPro-Book" font-size="44.0" fill="#FEFFFF" transform="matrix(1.00, 0.00, -0.00, -1.00, 228.1, 10.0)">d</text><text xml:space="preserve" font-family="OperatorPro-Book" font-size="44.0" fill="#FEFFFF" transform="matrix(1.00, 0.00, -0.00, -1.00, 256.4, 10.0)">o</text><text xml:space="preserve" font-family="OperatorPro-Book" font-size="44.0" fill="#FEFFFF" transform="matrix(1.00, 0.00, -0.00, -1.00, 285.3, 10.0)">-</text><text xml:space="preserve" font-family="OperatorPro-Book" font-size="44.0" fill="#FEFFFF" transform="matrix(1.00, 0.00, -0.00, -1.00, 306.3, 10.0)">s</text><text xml:space="preserve" font-family="OperatorPro-Book" font-size="44.0" fill="#FEFFFF" transform="matrix(1.00, 0.00, -0.00, -1.00, 329.7, 10.0)">e</text><text xml:space="preserve" font-family="OperatorPro-Book" font-size="44.0" fill="#FEFFFF" transform="matrix(1.00, 0.00, -0.00, -1.00, 355.9, 10.0)">l</text><text xml:space="preserve" font-family="OperatorPro-Book" font-size="44.0" fill="#FEFFFF" transform="matrix(1.00, 0.00, -0.00, -1.00, 377.3, 10.0)">e</text><text xml:space="preserve" font-family="OperatorPro-Book" font-size="44.0" fill="#FEFFFF" transform="matrix(1.00, 0.00, -0.00, -1.00, 403.7, 10.0)">c</text><text xml:space="preserve" font-family="OperatorPro-Book" font-size="44.0" fill="#FEFFFF" transform="matrix(1.00, 0.00, -0.00, -1.00, 427.6, 10.0)">t</text><text xml:space="preserve" font-family="OperatorPro-Book" font-size="44.0" fill="#FEFFFF" transform="matrix(1.00, 0.00, -0.00, -1.00, 449.6, 10.0)">o</text><text xml:space="preserve" font-family="OperatorPro-Book" font-size="44.0" fill="#FEFFFF" transform="matrix(1.00, 0.00, -0.00, -1.00, 477.7, 10.0)">r</text><text xml:space="preserve" font-family="OperatorPro-Book" font-size="44.0" fill="#FEFFFF" transform="matrix(1.00, 0.00, -0.00, -1.00, 502.6, 10.0)">s</text></g></svg>