<?xml version="1.0" encoding="UTF-8" standalone="no"?><svg xmlns="http://www.w3.org/2000/svg" xmlns:xlink="http://www.w3.org/1999/xlink" clip-rule="evenodd" stroke-miterlimit="4.00" viewBox="0 0 440 69"><desc>SVG generated by Keynote</desc><defs></defs><g transform="matrix(1.00, 0.00, -0.00, -1.00, 0.0, 69.0)"><text xml:space="preserve" font-family="OperatorPro-Bold" font-weight="bold" font-size="80.0" fill="#FAC763" transform="matrix(1.00, 0.00, -0.00, -1.00, -2.0, 5.0)">C</text><text xml:space="preserve" font-family="OperatorPro-Bold" font-weight="bold" font-size="80.0" fill="#FAC763" transform="matrix(1.00, 0.00, -0.00, -1.00, 45.5, 5.0)">S</text><text xml:space="preserve" font-family="OperatorPro-Bold" font-weight="bold" font-size="80.0" fill="#FAC763" transform="matrix(1.00, 0.00, -0.00, -1.00, 90.5, 5.0)">S</text><text xml:space="preserve" font-family="OperatorPro-Bold" font-weight="bold" font-size="80.0" fill="#FEFFFF" transform="matrix(1.00, 0.00, -0.00, -1.00, 136.0, 5.0)"> </text><text xml:space="preserve" font-family="OperatorPro-Bold" font-weight="bold" font-size="80.0" fill="#FEFFFF" transform="matrix(1.00, 0.00, -0.00, -1.00, 160.4, 5.0)">C</text><text xml:space="preserve" font-family="OperatorPro-Bold" font-weight="bold" font-size="80.0" fill="#FEFFFF" transform="matrix(1.00, 0.00, -0.00, -1.00, 203.6, 5.0)">l</text><text xml:space="preserve" font-family="OperatorPro-Bold" font-weight="bold" font-size="80.0" fill="#FEFFFF" transform="matrix(1.00, 0.00, -0.00, -1.00, 239.8, 5.0)">a</text><text xml:space="preserve" font-family="OperatorPro-Bold" font-weight="bold" font-size="80.0" fill="#FEFFFF" transform="matrix(1.00, 0.00, -0.00, -1.00, 283.8, 5.0)">s</text><text xml:space="preserve" font-family="OperatorPro-Bold" font-weight="bold" font-size="80.0" fill="#FEFFFF" transform="matrix(1.00, 0.00, -0.00, -1.00, 320.5, 5.0)">s</text><text xml:space="preserve" font-family="OperatorPro-Bold" font-weight="bold" font-size="80.0" fill="#FEFFFF" transform="matrix(1.00, 0.00, -0.00, -1.00, 357.5, 5.0)">e</text><text xml:space="preserve" font-family="OperatorPro-Bold" font-weight="bold" font-size="80.0" fill="#FEFFFF" transform="matrix(1.00, 0.00, -0.00, -1.00, 401.0, 5.0)">s</text></g></svg>