<?xml version="1.0" encoding="UTF-8" standalone="no"?><svg xmlns="http://www.w3.org/2000/svg" xmlns:xlink="http://www.w3.org/1999/xlink" clip-rule="evenodd" stroke-miterlimit="4.00" viewBox="0 0 604 231"><desc>SVG generated by Keynote</desc><defs></defs><g transform="matrix(1.00, 0.00, -0.00, -1.00, 0.0, 231.0)"><image xlink:href="../../DF766245-F28D-4A51-8117-5476895BD27B/assets/528CFC9C0D223AE6FB8EF5A352367438.png" width="20.00" height="20.00" transform="matrix(0.99, 0.00, -0.00, -0.99, 0.8, 217.7)"></image><text xml:space="preserve" font-family="OperatorPro-Bold" font-weight="bold" font-size="44.0" fill="#EC5E67" transform="matrix(1.00, 0.00, -0.00, -1.00, 44.0, 195.0)">E</text><text xml:space="preserve" font-family="OperatorPro-Bold" font-weight="bold" font-size="44.0" fill="#EC5E67" transform="matrix(1.00, 0.00, -0.00, -1.00, 70.4, 195.0)">x</text><text xml:space="preserve" font-family="OperatorPro-Bold" font-weight="bold" font-size="44.0" fill="#EC5E67" transform="matrix(1.00, 0.00, -0.00, -1.00, 97.5, 195.0)">t</text><text xml:space="preserve" font-family="OperatorPro-Bold" font-weight="bold" font-size="44.0" fill="#EC5E67" transform="matrix(1.00, 0.00, -0.00, -1.00, 120.3, 195.0)">r</text><text xml:space="preserve" font-family="OperatorPro-Bold" font-weight="bold" font-size="44.0" fill="#EC5E67" transform="matrix(1.00, 0.00, -0.00, -1.00, 146.1, 195.0)">a</text><text xml:space="preserve" font-family="OperatorPro-Book" font-size="44.0" fill="#FEFFFF" transform="matrix(1.00, 0.00, -0.00, -1.00, 173.3, 195.0)"> </text><text xml:space="preserve" font-family="OperatorPro-Book" font-size="44.0" fill="#FEFFFF" transform="matrix(1.00, 0.00, -0.00, -1.00, 187.7, 195.0)">d</text><text xml:space="preserve" font-family="OperatorPro-Book" font-size="44.0" fill="#FEFFFF" transform="matrix(1.00, 0.00, -0.00, -1.00, 216.1, 195.0)">e</text><text xml:space="preserve" font-family="OperatorPro-Book" font-size="44.0" fill="#FEFFFF" transform="matrix(1.00, 0.00, -0.00, -1.00, 242.5, 195.0)">c</text><text xml:space="preserve" font-family="OperatorPro-Book" font-size="44.0" fill="#FEFFFF" transform="matrix(1.00, 0.00, -0.00, -1.00, 266.3, 195.0)">i</text><text xml:space="preserve" font-family="OperatorPro-Book" font-size="44.0" fill="#FEFFFF" transform="matrix(1.00, 0.00, -0.00, -1.00, 289.4, 195.0)">s</text><text xml:space="preserve" font-family="OperatorPro-Book" font-size="44.0" fill="#FEFFFF" transform="matrix(1.00, 0.00, -0.00, -1.00, 312.8, 195.0)">i</text><text xml:space="preserve" font-family="OperatorPro-Book" font-size="44.0" fill="#FEFFFF" transform="matrix(1.00, 0.00, -0.00, -1.00, 335.5, 195.0)">o</text><text xml:space="preserve" font-family="OperatorPro-Book" font-size="44.0" fill="#FEFFFF" transform="matrix(1.00, 0.00, -0.00, -1.00, 364.1, 195.0)">n</text><text xml:space="preserve" font-family="OperatorPro-Book" font-size="44.0" fill="#FEFFFF" transform="matrix(1.00, 0.00, -0.00, -1.00, 393.2, 195.0)">s</text><text xml:space="preserve" font-family="OperatorPro-Book" font-size="44.0" fill="#FEFFFF" transform="matrix(1.00, 0.00, -0.00, -1.00, 416.8, 195.0)"> </text><text xml:space="preserve" font-family="OperatorPro-Book" font-size="44.0" fill="#FEFFFF" transform="matrix(1.00, 0.00, -0.00, -1.00, 431.2, 195.0)">=</text><text xml:space="preserve" font-family="OperatorPro-Book" font-size="44.0" fill="#FEFFFF" transform="matrix(1.00, 0.00, -0.00, -1.00, 459.5, 195.0)"> </text><text xml:space="preserve" font-family="OperatorPro-Bold" font-weight="bold" font-size="44.0" fill="#EC5E67" transform="matrix(1.00, 0.00, -0.00, -1.00, 474.0, 195.0)">e</text><text xml:space="preserve" font-family="OperatorPro-Bold" font-weight="bold" font-size="44.0" fill="#EC5E67" transform="matrix(1.00, 0.00, -0.00, -1.00, 501.2, 195.0)">x</text><text xml:space="preserve" font-family="OperatorPro-Bold" font-weight="bold" font-size="44.0" fill="#EC5E67" transform="matrix(1.00, 0.00, -0.00, -1.00, 528.2, 195.0)">t</text><text xml:space="preserve" font-family="OperatorPro-Bold" font-weight="bold" font-size="44.0" fill="#EC5E67" transform="matrix(1.00, 0.00, -0.00, -1.00, 551.1, 195.0)">r</text><text xml:space="preserve" font-family="OperatorPro-Bold" font-weight="bold" font-size="44.0" fill="#EC5E67" transform="matrix(1.00, 0.00, -0.00, -1.00, 576.8, 195.0)">a</text><text xml:space="preserve" font-family="OperatorPro-Book" font-size="44.0" fill="#FEFFFF" transform="matrix(1.00, 0.00, -0.00, -1.00, 604.1, 195.0)"> </text><text xml:space="preserve" font-family="OperatorPro-Book" font-size="44.0" fill="#FEFFFF" transform="matrix(1.00, 0.00, -0.00, -1.00, 44.0, 142.0)">c</text><text xml:space="preserve" font-family="OperatorPro-Book" font-size="44.0" fill="#FEFFFF" transform="matrix(1.00, 0.00, -0.00, -1.00, 67.4, 142.0)">o</text><text xml:space="preserve" font-family="OperatorPro-Book" font-size="44.0" fill="#FEFFFF" transform="matrix(1.00, 0.00, -0.00, -1.00, 95.9, 142.0)">n</text><text xml:space="preserve" font-family="OperatorPro-Book" font-size="44.0" fill="#FEFFFF" transform="matrix(1.00, 0.00, -0.00, -1.00, 125.0, 142.0)">f</text><text xml:space="preserve" font-family="OperatorPro-Book" font-size="44.0" fill="#FEFFFF" transform="matrix(1.00, 0.00, -0.00, -1.00, 149.2, 142.0)">i</text><text xml:space="preserve" font-family="OperatorPro-Book" font-size="44.0" fill="#FEFFFF" transform="matrix(1.00, 0.00, -0.00, -1.00, 172.0, 142.0)">g</text><text xml:space="preserve" font-family="OperatorPro-Book" font-size="44.0" fill="#FEFFFF" transform="matrix(1.00, 0.00, -0.00, -1.00, 199.7, 142.0)">u</text><text xml:space="preserve" font-family="OperatorPro-Book" font-size="44.0" fill="#FEFFFF" transform="matrix(1.00, 0.00, -0.00, -1.00, 228.8, 142.0)">r</text><text xml:space="preserve" font-family="OperatorPro-Book" font-size="44.0" fill="#FEFFFF" transform="matrix(1.00, 0.00, -0.00, -1.00, 253.7, 142.0)">a</text><text xml:space="preserve" font-family="OperatorPro-Book" font-size="44.0" fill="#FEFFFF" transform="matrix(1.00, 0.00, -0.00, -1.00, 280.2, 142.0)">t</text><text xml:space="preserve" font-family="OperatorPro-Book" font-size="44.0" fill="#FEFFFF" transform="matrix(1.00, 0.00, -0.00, -1.00, 302.5, 142.0)">i</text><text xml:space="preserve" font-family="OperatorPro-Book" font-size="44.0" fill="#FEFFFF" transform="matrix(1.00, 0.00, -0.00, -1.00, 325.2, 142.0)">o</text><text xml:space="preserve" font-family="OperatorPro-Book" font-size="44.0" fill="#FEFFFF" transform="matrix(1.00, 0.00, -0.00, -1.00, 353.8, 142.0)">n</text><text xml:space="preserve" font-family="OperatorPro-Book" font-size="44.0" fill="#FEFFFF" transform="matrix(1.00, 0.00, -0.00, -1.00, 382.9, 142.0)"> </text><image xlink:href="../../DF766245-F28D-4A51-8117-5476895BD27B/assets/528CFC9C0D223AE6FB8EF5A352367438.png" width="20.00" height="20.00" transform="matrix(0.99, 0.00, -0.00, -0.99, 0.8, 86.7)"></image><text xml:space="preserve" font-family="OperatorPro-Bold" font-weight="bold" font-size="44.0" fill="#EC5E67" transform="matrix(1.00, 0.00, -0.00, -1.00, 44.0, 64.0)">T</text><text xml:space="preserve" font-family="OperatorPro-Bold" font-weight="bold" font-size="44.0" fill="#EC5E67" transform="matrix(1.00, 0.00, -0.00, -1.00, 71.0, 64.0)">i</text><text xml:space="preserve" font-family="OperatorPro-Bold" font-weight="bold" font-size="44.0" fill="#EC5E67" transform="matrix(1.00, 0.00, -0.00, -1.00, 95.0, 64.0)">g</text><text xml:space="preserve" font-family="OperatorPro-Bold" font-weight="bold" font-size="44.0" fill="#EC5E67" transform="matrix(1.00, 0.00, -0.00, -1.00, 123.3, 64.0)">h</text><text xml:space="preserve" font-family="OperatorPro-Bold" font-weight="bold" font-size="44.0" fill="#EC5E67" transform="matrix(1.00, 0.00, -0.00, -1.00, 152.7, 64.0)">t</text><text xml:space="preserve" font-family="OperatorPro-Bold" font-weight="bold" font-size="44.0" fill="#EC5E67" transform="matrix(1.00, 0.00, -0.00, -1.00, 175.7, 64.0)">l</text><text xml:space="preserve" font-family="OperatorPro-Bold" font-weight="bold" font-size="44.0" fill="#EC5E67" transform="matrix(1.00, 0.00, -0.00, -1.00, 198.4, 64.0)">y</text><text xml:space="preserve" font-family="OperatorPro-Bold" font-weight="bold" font-size="44.0" fill="#EC5E67" transform="matrix(1.00, 0.00, -0.00, -1.00, 225.4, 64.0)"> </text><text xml:space="preserve" font-family="OperatorPro-Bold" font-weight="bold" font-size="44.0" fill="#EC5E67" transform="matrix(1.00, 0.00, -0.00, -1.00, 239.7, 64.0)">c</text><text xml:space="preserve" font-family="OperatorPro-Bold" font-weight="bold" font-size="44.0" fill="#EC5E67" transform="matrix(1.00, 0.00, -0.00, -1.00, 263.3, 64.0)">o</text><text xml:space="preserve" font-family="OperatorPro-Bold" font-weight="bold" font-size="44.0" fill="#EC5E67" transform="matrix(1.00, 0.00, -0.00, -1.00, 292.5, 64.0)">u</text><text xml:space="preserve" font-family="OperatorPro-Bold" font-weight="bold" font-size="44.0" fill="#EC5E67" transform="matrix(1.00, 0.00, -0.00, -1.00, 322.0, 64.0)">p</text><text xml:space="preserve" font-family="OperatorPro-Bold" font-weight="bold" font-size="44.0" fill="#EC5E67" transform="matrix(1.00, 0.00, -0.00, -1.00, 350.1, 64.0)">l</text><text xml:space="preserve" font-family="OperatorPro-Bold" font-weight="bold" font-size="44.0" fill="#EC5E67" transform="matrix(1.00, 0.00, -0.00, -1.00, 372.5, 64.0)">e</text><text xml:space="preserve" font-family="OperatorPro-Bold" font-weight="bold" font-size="44.0" fill="#EC5E67" transform="matrix(1.00, 0.00, -0.00, -1.00, 399.6, 64.0)">d</text><text xml:space="preserve" font-family="OperatorPro-Book" font-size="44.0" fill="#FEFFFF" transform="matrix(1.00, 0.00, -0.00, -1.00, 428.5, 64.0)"> </text><text xml:space="preserve" font-family="OperatorPro-Book" font-size="44.0" fill="#FEFFFF" transform="matrix(1.00, 0.00, -0.00, -1.00, 442.9, 64.0)">c</text><text xml:space="preserve" font-family="OperatorPro-Book" font-size="44.0" fill="#FEFFFF" transform="matrix(1.00, 0.00, -0.00, -1.00, 466.8, 64.0)">l</text><text xml:space="preserve" font-family="OperatorPro-Book" font-size="44.0" fill="#FEFFFF" transform="matrix(1.00, 0.00, -0.00, -1.00, 488.8, 64.0)">a</text><text xml:space="preserve" font-family="OperatorPro-Book" font-size="44.0" fill="#FEFFFF" transform="matrix(1.00, 0.00, -0.00, -1.00, 515.3, 64.0)">s</text><text xml:space="preserve" font-family="OperatorPro-Book" font-size="44.0" fill="#FEFFFF" transform="matrix(1.00, 0.00, -0.00, -1.00, 538.3, 64.0)">s</text><text xml:space="preserve" font-family="OperatorPro-Book" font-size="44.0" fill="#FEFFFF" transform="matrix(1.00, 0.00, -0.00, -1.00, 561.9, 64.0)"> </text><text xml:space="preserve" font-family="OperatorPro-Book" font-size="44.0" fill="#FEFFFF" transform="matrix(1.00, 0.00, -0.00, -1.00, 44.0, 11.0)">n</text><text xml:space="preserve" font-family="OperatorPro-Book" font-size="44.0" fill="#FEFFFF" transform="matrix(1.00, 0.00, -0.00, -1.00, 73.1, 11.0)">a</text><text xml:space="preserve" font-family="OperatorPro-Book" font-size="44.0" fill="#FEFFFF" transform="matrix(1.00, 0.00, -0.00, -1.00, 99.7, 11.0)">m</text><text xml:space="preserve" font-family="OperatorPro-Book" font-size="44.0" fill="#FEFFFF" transform="matrix(1.00, 0.00, -0.00, -1.00, 140.8, 11.0)">e</text><text xml:space="preserve" font-family="OperatorPro-Book" font-size="44.0" fill="#FEFFFF" transform="matrix(1.00, 0.00, -0.00, -1.00, 167.1, 11.0)">s</text><text xml:space="preserve" font-family="OperatorPro-Book" font-size="44.0" fill="#FEFFFF" transform="matrix(1.00, 0.00, -0.00, -1.00, 190.7, 11.0)"> </text><text xml:space="preserve" font-family="OperatorPro-Book" font-size="44.0" fill="#FEFFFF" transform="matrix(1.00, 0.00, -0.00, -1.00, 205.1, 11.0)">a</text><text xml:space="preserve" font-family="OperatorPro-Book" font-size="44.0" fill="#FEFFFF" transform="matrix(1.00, 0.00, -0.00, -1.00, 231.7, 11.0)">n</text><text xml:space="preserve" font-family="OperatorPro-Book" font-size="44.0" fill="#FEFFFF" transform="matrix(1.00, 0.00, -0.00, -1.00, 260.8, 11.0)">d</text><text xml:space="preserve" font-family="OperatorPro-Book" font-size="44.0" fill="#FEFFFF" transform="matrix(1.00, 0.00, -0.00, -1.00, 289.1, 11.0)"> </text><text xml:space="preserve" font-family="OperatorPro-Book" font-size="44.0" fill="#FEFFFF" transform="matrix(1.00, 0.00, -0.00, -1.00, 303.6, 11.0)">c</text><text xml:space="preserve" font-family="OperatorPro-Book" font-size="44.0" fill="#FEFFFF" transform="matrix(1.00, 0.00, -0.00, -1.00, 326.9, 11.0)">o</text><text xml:space="preserve" font-family="OperatorPro-Book" font-size="44.0" fill="#FEFFFF" transform="matrix(1.00, 0.00, -0.00, -1.00, 355.4, 11.0)">m</text><text xml:space="preserve" font-family="OperatorPro-Book" font-size="44.0" fill="#FEFFFF" transform="matrix(1.00, 0.00, -0.00, -1.00, 396.5, 11.0)">p</text><text xml:space="preserve" font-family="OperatorPro-Book" font-size="44.0" fill="#FEFFFF" transform="matrix(1.00, 0.00, -0.00, -1.00, 424.8, 11.0)">o</text><text xml:space="preserve" font-family="OperatorPro-Book" font-size="44.0" fill="#FEFFFF" transform="matrix(1.00, 0.00, -0.00, -1.00, 453.3, 11.0)">n</text><text xml:space="preserve" font-family="OperatorPro-Book" font-size="44.0" fill="#FEFFFF" transform="matrix(1.00, 0.00, -0.00, -1.00, 482.5, 11.0)">e</text><text xml:space="preserve" font-family="OperatorPro-Book" font-size="44.0" fill="#FEFFFF" transform="matrix(1.00, 0.00, -0.00, -1.00, 508.9, 11.0)">n</text><text xml:space="preserve" font-family="OperatorPro-Book" font-size="44.0" fill="#FEFFFF" transform="matrix(1.00, 0.00, -0.00, -1.00, 538.0, 11.0)">t</text><text xml:space="preserve" font-family="OperatorPro-Book" font-size="44.0" fill="#FEFFFF" transform="matrix(1.00, 0.00, -0.00, -1.00, 560.3, 11.0)">s</text></g></svg>