<?xml version="1.0" encoding="UTF-8" standalone="no"?><svg xmlns="http://www.w3.org/2000/svg" xmlns:xlink="http://www.w3.org/1999/xlink" clip-rule="evenodd" stroke-miterlimit="4.00" viewBox="0 0 1024 768"><desc>SVG generated by Keynote</desc><defs></defs><g transform="matrix(1.00, 0.00, -0.00, -1.00, 0.0, 768.0)"><path d="M 0.0 768.0 L 1024.0 768.0 L 1024.0 0.0 L 0.0 0.0 Z M 0.0 768.0 " fill="#24282B"></path><text xml:space="preserve" font-family="OperatorMono-Medium" font-size="32.0" fill="#5EB3B3" transform="matrix(1.00, 0.00, -0.00, -1.00, 30.0, 509.0)">i</text><text xml:space="preserve" font-family="OperatorMono-Medium" font-size="32.0" fill="#5EB3B3" transform="matrix(1.00, 0.00, -0.00, -1.00, 47.6, 509.0)">m</text><text xml:space="preserve" font-family="OperatorMono-Medium" font-size="32.0" fill="#5EB3B3" transform="matrix(1.00, 0.00, -0.00, -1.00, 65.2, 509.0)">p</text><text xml:space="preserve" font-family="OperatorMono-Medium" font-size="32.0" fill="#5EB3B3" transform="matrix(1.00, 0.00, -0.00, -1.00, 82.8, 509.0)">o</text><text xml:space="preserve" font-family="OperatorMono-Medium" font-size="32.0" fill="#5EB3B3" transform="matrix(1.00, 0.00, -0.00, -1.00, 100.4, 509.0)">r</text><text xml:space="preserve" font-family="OperatorMono-Medium" font-size="32.0" fill="#5EB3B3" transform="matrix(1.00, 0.00, -0.00, -1.00, 118.0, 509.0)">t</text><text xml:space="preserve" font-family="OperatorMono-Medium" font-size="32.0" fill="#5EB3B3" transform="matrix(1.00, 0.00, -0.00, -1.00, 135.6, 509.0)"> </text><text xml:space="preserve" font-family="OperatorMono-Medium" font-size="32.0" fill="#FEFFFF" transform="matrix(1.00, 0.00, -0.00, -1.00, 153.2, 509.0)">s</text><text xml:space="preserve" font-family="OperatorMono-Medium" font-size="32.0" fill="#FEFFFF" transform="matrix(1.00, 0.00, -0.00, -1.00, 170.8, 509.0)">t</text><text xml:space="preserve" font-family="OperatorMono-Medium" font-size="32.0" fill="#FEFFFF" transform="matrix(1.00, 0.00, -0.00, -1.00, 188.4, 509.0)">y</text><text xml:space="preserve" font-family="OperatorMono-Medium" font-size="32.0" fill="#FEFFFF" transform="matrix(1.00, 0.00, -0.00, -1.00, 206.0, 509.0)">l</text><text xml:space="preserve" font-family="OperatorMono-Medium" font-size="32.0" fill="#FEFFFF" transform="matrix(1.00, 0.00, -0.00, -1.00, 223.6, 509.0)">e</text><text xml:space="preserve" font-family="OperatorMono-Medium" font-size="32.0" fill="#FEFFFF" transform="matrix(1.00, 0.00, -0.00, -1.00, 241.2, 509.0)">d</text><text xml:space="preserve" font-family="OperatorMono-Medium" font-size="32.0" fill="#5EB3B3" transform="matrix(1.00, 0.00, -0.00, -1.00, 258.8, 509.0)"> </text><text xml:space="preserve" font-family="OperatorMono-Medium" font-size="32.0" fill="#5EB3B3" transform="matrix(1.00, 0.00, -0.00, -1.00, 276.4, 509.0)">f</text><text xml:space="preserve" font-family="OperatorMono-Medium" font-size="32.0" fill="#5EB3B3" transform="matrix(1.00, 0.00, -0.00, -1.00, 294.0, 509.0)">r</text><text xml:space="preserve" font-family="OperatorMono-Medium" font-size="32.0" fill="#5EB3B3" transform="matrix(1.00, 0.00, -0.00, -1.00, 311.6, 509.0)">o</text><text xml:space="preserve" font-family="OperatorMono-Medium" font-size="32.0" fill="#5EB3B3" transform="matrix(1.00, 0.00, -0.00, -1.00, 329.2, 509.0)">m</text><text xml:space="preserve" font-family="OperatorMono-Medium" font-size="32.0" fill="#5EB3B3" transform="matrix(1.00, 0.00, -0.00, -1.00, 346.8, 509.0)"> </text><text xml:space="preserve" font-family="OperatorMono-Medium" font-size="32.0" fill="#99C794" transform="matrix(1.00, 0.00, -0.00, -1.00, 364.4, 509.0)">‘</text><text xml:space="preserve" font-family="OperatorMono-Medium" font-size="32.0" fill="#99C794" transform="matrix(1.00, 0.00, -0.00, -1.00, 382.0, 509.0)">s</text><text xml:space="preserve" font-family="OperatorMono-Medium" font-size="32.0" fill="#99C794" transform="matrix(1.00, 0.00, -0.00, -1.00, 399.6, 509.0)">t</text><text xml:space="preserve" font-family="OperatorMono-Medium" font-size="32.0" fill="#99C794" transform="matrix(1.00, 0.00, -0.00, -1.00, 417.2, 509.0)">y</text><text xml:space="preserve" font-family="OperatorMono-Medium" font-size="32.0" fill="#99C794" transform="matrix(1.00, 0.00, -0.00, -1.00, 434.8, 509.0)">l</text><text xml:space="preserve" font-family="OperatorMono-Medium" font-size="32.0" fill="#99C794" transform="matrix(1.00, 0.00, -0.00, -1.00, 452.4, 509.0)">e</text><text xml:space="preserve" font-family="OperatorMono-Medium" font-size="32.0" fill="#99C794" transform="matrix(1.00, 0.00, -0.00, -1.00, 470.0, 509.0)">d</text><text xml:space="preserve" font-family="OperatorMono-Medium" font-size="32.0" fill="#99C794" transform="matrix(1.00, 0.00, -0.00, -1.00, 487.6, 509.0)">-</text><text xml:space="preserve" font-family="OperatorMono-Medium" font-size="32.0" fill="#99C794" transform="matrix(1.00, 0.00, -0.00, -1.00, 505.2, 509.0)">c</text><text xml:space="preserve" font-family="OperatorMono-Medium" font-size="32.0" fill="#99C794" transform="matrix(1.00, 0.00, -0.00, -1.00, 522.8, 509.0)">o</text><text xml:space="preserve" font-family="OperatorMono-Medium" font-size="32.0" fill="#99C794" transform="matrix(1.00, 0.00, -0.00, -1.00, 540.4, 509.0)">m</text><text xml:space="preserve" font-family="OperatorMono-Medium" font-size="32.0" fill="#99C794" transform="matrix(1.00, 0.00, -0.00, -1.00, 558.0, 509.0)">p</text><text xml:space="preserve" font-family="OperatorMono-Medium" font-size="32.0" fill="#99C794" transform="matrix(1.00, 0.00, -0.00, -1.00, 575.6, 509.0)">o</text><text xml:space="preserve" font-family="OperatorMono-Medium" font-size="32.0" fill="#99C794" transform="matrix(1.00, 0.00, -0.00, -1.00, 593.2, 509.0)">n</text><text xml:space="preserve" font-family="OperatorMono-Medium" font-size="32.0" fill="#99C794" transform="matrix(1.00, 0.00, -0.00, -1.00, 610.8, 509.0)">e</text><text xml:space="preserve" font-family="OperatorMono-Medium" font-size="32.0" fill="#99C794" transform="matrix(1.00, 0.00, -0.00, -1.00, 628.4, 509.0)">n</text><text xml:space="preserve" font-family="OperatorMono-Medium" font-size="32.0" fill="#99C794" transform="matrix(1.00, 0.00, -0.00, -1.00, 646.0, 509.0)">t</text><text xml:space="preserve" font-family="OperatorMono-Medium" font-size="32.0" fill="#99C794" transform="matrix(1.00, 0.00, -0.00, -1.00, 663.6, 509.0)">s</text><text xml:space="preserve" font-family="OperatorMono-Medium" font-size="32.0" fill="#99C794" transform="matrix(1.00, 0.00, -0.00, -1.00, 681.2, 509.0)">’</text><text xml:space="preserve" font-family="OperatorMono-Medium" font-size="32.0" fill="#5EB3B3" transform="matrix(1.00, 0.00, -0.00, -1.00, 698.8, 509.0)">;</text><text xml:space="preserve" font-family="OperatorMono-Medium" font-size="32.0" fill="#5EB3B3" transform="matrix(1.00, 0.00, -0.00, -1.00, 716.4, 509.0)"> </text><text xml:space="preserve" font-family="OperatorMono-Medium" font-size="32.0" fill="#C494C4" transform="matrix(1.00, 0.00, -0.00, -1.00, 30.0, 431.0)">c</text><text xml:space="preserve" font-family="OperatorMono-Medium" font-size="32.0" fill="#C494C4" transform="matrix(1.00, 0.00, -0.00, -1.00, 47.6, 431.0)">o</text><text xml:space="preserve" font-family="OperatorMono-Medium" font-size="32.0" fill="#C494C4" transform="matrix(1.00, 0.00, -0.00, -1.00, 65.2, 431.0)">n</text><text xml:space="preserve" font-family="OperatorMono-Medium" font-size="32.0" fill="#C494C4" transform="matrix(1.00, 0.00, -0.00, -1.00, 82.8, 431.0)">s</text><text xml:space="preserve" font-family="OperatorMono-Medium" font-size="32.0" fill="#C494C4" transform="matrix(1.00, 0.00, -0.00, -1.00, 100.4, 431.0)">t</text><text xml:space="preserve" font-family="OperatorMono-Medium" font-size="32.0" fill="#5EB3B3" transform="matrix(1.00, 0.00, -0.00, -1.00, 118.0, 431.0)"> </text><text xml:space="preserve" font-family="OperatorMono-Medium" font-size="32.0" fill="#FEFFFF" transform="matrix(1.00, 0.00, -0.00, -1.00, 135.6, 431.0)">B</text><text xml:space="preserve" font-family="OperatorMono-Medium" font-size="32.0" fill="#FEFFFF" transform="matrix(1.00, 0.00, -0.00, -1.00, 153.2, 431.0)">u</text><text xml:space="preserve" font-family="OperatorMono-Medium" font-size="32.0" fill="#FEFFFF" transform="matrix(1.00, 0.00, -0.00, -1.00, 170.8, 431.0)">t</text><text xml:space="preserve" font-family="OperatorMono-Medium" font-size="32.0" fill="#FEFFFF" transform="matrix(1.00, 0.00, -0.00, -1.00, 188.4, 431.0)">t</text><text xml:space="preserve" font-family="OperatorMono-Medium" font-size="32.0" fill="#FEFFFF" transform="matrix(1.00, 0.00, -0.00, -1.00, 206.0, 431.0)">o</text><text xml:space="preserve" font-family="OperatorMono-Medium" font-size="32.0" fill="#FEFFFF" transform="matrix(1.00, 0.00, -0.00, -1.00, 223.6, 431.0)">n</text><text xml:space="preserve" font-family="OperatorMono-Medium" font-size="32.0" fill="#5EB3B3" transform="matrix(1.00, 0.00, -0.00, -1.00, 241.2, 431.0)"> </text><text xml:space="preserve" font-family="OperatorMono-Medium" font-size="32.0" fill="#5EB3B3" transform="matrix(1.00, 0.00, -0.00, -1.00, 258.8, 431.0)">=</text><text xml:space="preserve" font-family="OperatorMono-Medium" font-size="32.0" fill="#5EB3B3" transform="matrix(1.00, 0.00, -0.00, -1.00, 276.4, 431.0)"> </text><text xml:space="preserve" font-family="OperatorMono-Medium" font-size="32.0" fill="#6699CC" transform="matrix(1.00, 0.00, -0.00, -1.00, 294.0, 431.0)">s</text><text xml:space="preserve" font-family="OperatorMono-Medium" font-size="32.0" fill="#6699CC" transform="matrix(1.00, 0.00, -0.00, -1.00, 311.6, 431.0)">t</text><text xml:space="preserve" font-family="OperatorMono-Medium" font-size="32.0" fill="#6699CC" transform="matrix(1.00, 0.00, -0.00, -1.00, 329.2, 431.0)">y</text><text xml:space="preserve" font-family="OperatorMono-Medium" font-size="32.0" fill="#6699CC" transform="matrix(1.00, 0.00, -0.00, -1.00, 346.8, 431.0)">l</text><text xml:space="preserve" font-family="OperatorMono-Medium" font-size="32.0" fill="#6699CC" transform="matrix(1.00, 0.00, -0.00, -1.00, 364.4, 431.0)">e</text><text xml:space="preserve" font-family="OperatorMono-Medium" font-size="32.0" fill="#6699CC" transform="matrix(1.00, 0.00, -0.00, -1.00, 382.0, 431.0)">d</text><text xml:space="preserve" font-family="OperatorMono-Medium" font-size="32.0" fill="#FEFFFF" transform="matrix(1.00, 0.00, -0.00, -1.00, 399.6, 431.0)">.</text><text xml:space="preserve" font-family="OperatorMono-Medium" font-size="32.0" fill="#FEFFFF" transform="matrix(1.00, 0.00, -0.00, -1.00, 417.2, 431.0)">b</text><text xml:space="preserve" font-family="OperatorMono-Medium" font-size="32.0" fill="#FEFFFF" transform="matrix(1.00, 0.00, -0.00, -1.00, 434.8, 431.0)">u</text><text xml:space="preserve" font-family="OperatorMono-Medium" font-size="32.0" fill="#FEFFFF" transform="matrix(1.00, 0.00, -0.00, -1.00, 452.4, 431.0)">t</text><text xml:space="preserve" font-family="OperatorMono-Medium" font-size="32.0" fill="#FEFFFF" transform="matrix(1.00, 0.00, -0.00, -1.00, 470.0, 431.0)">t</text><text xml:space="preserve" font-family="OperatorMono-Medium" font-size="32.0" fill="#FEFFFF" transform="matrix(1.00, 0.00, -0.00, -1.00, 487.6, 431.0)">o</text><text xml:space="preserve" font-family="OperatorMono-Medium" font-size="32.0" fill="#FEFFFF" transform="matrix(1.00, 0.00, -0.00, -1.00, 505.2, 431.0)">n</text><text xml:space="preserve" font-family="OperatorMono-Medium" font-size="32.0" fill="#99C794" transform="matrix(1.00, 0.00, -0.00, -1.00, 522.8, 431.0)">`</text><text xml:space="preserve" font-family="OperatorMono-Medium" font-size="32.0" fill="#5EB3B3" transform="matrix(1.00, 0.00, -0.00, -1.00, 540.4, 431.0)"> </text><text xml:space="preserve" font-family="OperatorMono-Medium" font-size="32.0" fill="#5EB3B3" transform="matrix(1.00, 0.00, -0.00, -1.00, 48.0, 392.0)"> </text><text xml:space="preserve" font-family="OperatorMono-Medium" font-size="32.0" fill="#FAC763" transform="matrix(1.00, 0.00, -0.00, -1.00, 65.6, 392.0)">b</text><text xml:space="preserve" font-family="OperatorMono-Medium" font-size="32.0" fill="#FAC763" transform="matrix(1.00, 0.00, -0.00, -1.00, 83.2, 392.0)">o</text><text xml:space="preserve" font-family="OperatorMono-Medium" font-size="32.0" fill="#FAC763" transform="matrix(1.00, 0.00, -0.00, -1.00, 100.8, 392.0)">r</text><text xml:space="preserve" font-family="OperatorMono-Medium" font-size="32.0" fill="#FAC763" transform="matrix(1.00, 0.00, -0.00, -1.00, 118.4, 392.0)">d</text><text xml:space="preserve" font-family="OperatorMono-Medium" font-size="32.0" fill="#FAC763" transform="matrix(1.00, 0.00, -0.00, -1.00, 136.0, 392.0)">e</text><text xml:space="preserve" font-family="OperatorMono-Medium" font-size="32.0" fill="#FAC763" transform="matrix(1.00, 0.00, -0.00, -1.00, 153.6, 392.0)">r</text><text xml:space="preserve" font-family="OperatorMono-Medium" font-size="32.0" fill="#FEFFFF" transform="matrix(1.00, 0.00, -0.00, -1.00, 171.2, 392.0)">:</text><text xml:space="preserve" font-family="OperatorMono-Medium" font-size="32.0" fill="#5EB3B3" transform="matrix(1.00, 0.00, -0.00, -1.00, 188.8, 392.0)"> </text><text xml:space="preserve" font-family="OperatorMono-Medium" font-size="32.0" fill="#F99157" transform="matrix(1.00, 0.00, -0.00, -1.00, 206.4, 392.0)">1</text><text xml:space="preserve" font-family="OperatorMono-Medium" font-size="32.0" fill="#F99157" transform="matrix(1.00, 0.00, -0.00, -1.00, 224.0, 392.0)">p</text><text xml:space="preserve" font-family="OperatorMono-Medium" font-size="32.0" fill="#F99157" transform="matrix(1.00, 0.00, -0.00, -1.00, 241.6, 392.0)">x</text><text xml:space="preserve" font-family="OperatorMono-Medium" font-size="32.0" fill="#F99157" transform="matrix(1.00, 0.00, -0.00, -1.00, 259.2, 392.0)"> </text><text xml:space="preserve" font-family="OperatorMono-Medium" font-size="32.0" fill="#F99157" transform="matrix(1.00, 0.00, -0.00, -1.00, 276.8, 392.0)">s</text><text xml:space="preserve" font-family="OperatorMono-Medium" font-size="32.0" fill="#F99157" transform="matrix(1.00, 0.00, -0.00, -1.00, 294.4, 392.0)">o</text><text xml:space="preserve" font-family="OperatorMono-Medium" font-size="32.0" fill="#F99157" transform="matrix(1.00, 0.00, -0.00, -1.00, 312.0, 392.0)">l</text><text xml:space="preserve" font-family="OperatorMono-Medium" font-size="32.0" fill="#F99157" transform="matrix(1.00, 0.00, -0.00, -1.00, 329.6, 392.0)">i</text><text xml:space="preserve" font-family="OperatorMono-Medium" font-size="32.0" fill="#F99157" transform="matrix(1.00, 0.00, -0.00, -1.00, 347.2, 392.0)">d</text><text xml:space="preserve" font-family="OperatorMono-Medium" font-size="32.0" fill="#F99157" transform="matrix(1.00, 0.00, -0.00, -1.00, 364.8, 392.0)"> </text><text xml:space="preserve" font-family="OperatorMono-Medium" font-size="32.0" fill="#F99157" transform="matrix(1.00, 0.00, -0.00, -1.00, 382.4, 392.0)">t</text><text xml:space="preserve" font-family="OperatorMono-Medium" font-size="32.0" fill="#F99157" transform="matrix(1.00, 0.00, -0.00, -1.00, 400.0, 392.0)">o</text><text xml:space="preserve" font-family="OperatorMono-Medium" font-size="32.0" fill="#F99157" transform="matrix(1.00, 0.00, -0.00, -1.00, 417.6, 392.0)">m</text><text xml:space="preserve" font-family="OperatorMono-Medium" font-size="32.0" fill="#F99157" transform="matrix(1.00, 0.00, -0.00, -1.00, 435.2, 392.0)">a</text><text xml:space="preserve" font-family="OperatorMono-Medium" font-size="32.0" fill="#F99157" transform="matrix(1.00, 0.00, -0.00, -1.00, 452.8, 392.0)">t</text><text xml:space="preserve" font-family="OperatorMono-Medium" font-size="32.0" fill="#F99157" transform="matrix(1.00, 0.00, -0.00, -1.00, 470.4, 392.0)">o</text><text xml:space="preserve" font-family="OperatorMono-Medium" font-size="32.0" fill="#5EB3B3" transform="matrix(1.00, 0.00, -0.00, -1.00, 488.0, 392.0)">;</text><text xml:space="preserve" font-family="OperatorMono-Medium" font-size="32.0" fill="#5EB3B3" transform="matrix(1.00, 0.00, -0.00, -1.00, 505.6, 392.0)"> </text><text xml:space="preserve" font-family="OperatorMono-Medium" font-size="32.0" fill="#5EB3B3" transform="matrix(1.00, 0.00, -0.00, -1.00, 48.0, 353.0)"> </text><text xml:space="preserve" font-family="OperatorMono-Medium" font-size="32.0" fill="#FAC763" transform="matrix(1.00, 0.00, -0.00, -1.00, 65.6, 353.0)">b</text><text xml:space="preserve" font-family="OperatorMono-Medium" font-size="32.0" fill="#FAC763" transform="matrix(1.00, 0.00, -0.00, -1.00, 83.2, 353.0)">o</text><text xml:space="preserve" font-family="OperatorMono-Medium" font-size="32.0" fill="#FAC763" transform="matrix(1.00, 0.00, -0.00, -1.00, 100.8, 353.0)">r</text><text xml:space="preserve" font-family="OperatorMono-Medium" font-size="32.0" fill="#FAC763" transform="matrix(1.00, 0.00, -0.00, -1.00, 118.4, 353.0)">d</text><text xml:space="preserve" font-family="OperatorMono-Medium" font-size="32.0" fill="#FAC763" transform="matrix(1.00, 0.00, -0.00, -1.00, 136.0, 353.0)">e</text><text xml:space="preserve" font-family="OperatorMono-Medium" font-size="32.0" fill="#FAC763" transform="matrix(1.00, 0.00, -0.00, -1.00, 153.6, 353.0)">r</text><text xml:space="preserve" font-family="OperatorMono-Medium" font-size="32.0" fill="#FAC763" transform="matrix(1.00, 0.00, -0.00, -1.00, 171.2, 353.0)">-</text><text xml:space="preserve" font-family="OperatorMono-Medium" font-size="32.0" fill="#FAC763" transform="matrix(1.00, 0.00, -0.00, -1.00, 188.8, 353.0)">r</text><text xml:space="preserve" font-family="OperatorMono-Medium" font-size="32.0" fill="#FAC763" transform="matrix(1.00, 0.00, -0.00, -1.00, 206.4, 353.0)">a</text><text xml:space="preserve" font-family="OperatorMono-Medium" font-size="32.0" fill="#FAC763" transform="matrix(1.00, 0.00, -0.00, -1.00, 224.0, 353.0)">d</text><text xml:space="preserve" font-family="OperatorMono-Medium" font-size="32.0" fill="#FAC763" transform="matrix(1.00, 0.00, -0.00, -1.00, 241.6, 353.0)">i</text><text xml:space="preserve" font-family="OperatorMono-Medium" font-size="32.0" fill="#FAC763" transform="matrix(1.00, 0.00, -0.00, -1.00, 259.2, 353.0)">u</text><text xml:space="preserve" font-family="OperatorMono-Medium" font-size="32.0" fill="#FAC763" transform="matrix(1.00, 0.00, -0.00, -1.00, 276.8, 353.0)">s</text><text xml:space="preserve" font-family="OperatorMono-Medium" font-size="32.0" fill="#FEFFFF" transform="matrix(1.00, 0.00, -0.00, -1.00, 294.4, 353.0)">:</text><text xml:space="preserve" font-family="OperatorMono-Medium" font-size="32.0" fill="#5EB3B3" transform="matrix(1.00, 0.00, -0.00, -1.00, 312.0, 353.0)"> </text><text xml:space="preserve" font-family="OperatorMono-Medium" font-size="32.0" fill="#F99157" transform="matrix(1.00, 0.00, -0.00, -1.00, 329.6, 353.0)">3</text><text xml:space="preserve" font-family="OperatorMono-Medium" font-size="32.0" fill="#F99157" transform="matrix(1.00, 0.00, -0.00, -1.00, 347.2, 353.0)">p</text><text xml:space="preserve" font-family="OperatorMono-Medium" font-size="32.0" fill="#F99157" transform="matrix(1.00, 0.00, -0.00, -1.00, 364.8, 353.0)">x</text><text xml:space="preserve" font-family="OperatorMono-Medium" font-size="32.0" fill="#5EB3B3" transform="matrix(1.00, 0.00, -0.00, -1.00, 382.4, 353.0)">;</text><text xml:space="preserve" font-family="OperatorMono-Medium" font-size="32.0" fill="#5EB3B3" transform="matrix(1.00, 0.00, -0.00, -1.00, 400.0, 353.0)"> </text><text xml:space="preserve" font-family="OperatorMono-Medium" font-size="32.0" fill="#5EB3B3" transform="matrix(1.00, 0.00, -0.00, -1.00, 48.0, 314.0)"> </text><text xml:space="preserve" font-family="OperatorMono-Medium" font-size="32.0" fill="#FAC763" transform="matrix(1.00, 0.00, -0.00, -1.00, 65.6, 314.0)">b</text><text xml:space="preserve" font-family="OperatorMono-Medium" font-size="32.0" fill="#FAC763" transform="matrix(1.00, 0.00, -0.00, -1.00, 83.2, 314.0)">a</text><text xml:space="preserve" font-family="OperatorMono-Medium" font-size="32.0" fill="#FAC763" transform="matrix(1.00, 0.00, -0.00, -1.00, 100.8, 314.0)">c</text><text xml:space="preserve" font-family="OperatorMono-Medium" font-size="32.0" fill="#FAC763" transform="matrix(1.00, 0.00, -0.00, -1.00, 118.4, 314.0)">k</text><text xml:space="preserve" font-family="OperatorMono-Medium" font-size="32.0" fill="#FAC763" transform="matrix(1.00, 0.00, -0.00, -1.00, 136.0, 314.0)">g</text><text xml:space="preserve" font-family="OperatorMono-Medium" font-size="32.0" fill="#FAC763" transform="matrix(1.00, 0.00, -0.00, -1.00, 153.6, 314.0)">r</text><text xml:space="preserve" font-family="OperatorMono-Medium" font-size="32.0" fill="#FAC763" transform="matrix(1.00, 0.00, -0.00, -1.00, 171.2, 314.0)">o</text><text xml:space="preserve" font-family="OperatorMono-Medium" font-size="32.0" fill="#FAC763" transform="matrix(1.00, 0.00, -0.00, -1.00, 188.8, 314.0)">u</text><text xml:space="preserve" font-family="OperatorMono-Medium" font-size="32.0" fill="#FAC763" transform="matrix(1.00, 0.00, -0.00, -1.00, 206.4, 314.0)">n</text><text xml:space="preserve" font-family="OperatorMono-Medium" font-size="32.0" fill="#FAC763" transform="matrix(1.00, 0.00, -0.00, -1.00, 224.0, 314.0)">d</text><text xml:space="preserve" font-family="OperatorMono-Medium" font-size="32.0" fill="#FAC763" transform="matrix(1.00, 0.00, -0.00, -1.00, 241.6, 314.0)">-</text><text xml:space="preserve" font-family="OperatorMono-Medium" font-size="32.0" fill="#FAC763" transform="matrix(1.00, 0.00, -0.00, -1.00, 259.2, 314.0)">c</text><text xml:space="preserve" font-family="OperatorMono-Medium" font-size="32.0" fill="#FAC763" transform="matrix(1.00, 0.00, -0.00, -1.00, 276.8, 314.0)">o</text><text xml:space="preserve" font-family="OperatorMono-Medium" font-size="32.0" fill="#FAC763" transform="matrix(1.00, 0.00, -0.00, -1.00, 294.4, 314.0)">l</text><text xml:space="preserve" font-family="OperatorMono-Medium" font-size="32.0" fill="#FAC763" transform="matrix(1.00, 0.00, -0.00, -1.00, 312.0, 314.0)">o</text><text xml:space="preserve" font-family="OperatorMono-Medium" font-size="32.0" fill="#FAC763" transform="matrix(1.00, 0.00, -0.00, -1.00, 329.6, 314.0)">r</text><text xml:space="preserve" font-family="OperatorMono-Medium" font-size="32.0" fill="#FEFFFF" transform="matrix(1.00, 0.00, -0.00, -1.00, 347.2, 314.0)">:</text><text xml:space="preserve" font-family="OperatorMono-Medium" font-size="32.0" fill="#5EB3B3" transform="matrix(1.00, 0.00, -0.00, -1.00, 364.8, 314.0)"> </text><text xml:space="preserve" font-family="OperatorMono-Medium" font-size="32.0" fill="#F99157" transform="matrix(1.00, 0.00, -0.00, -1.00, 382.4, 314.0)">s</text><text xml:space="preserve" font-family="OperatorMono-Medium" font-size="32.0" fill="#F99157" transform="matrix(1.00, 0.00, -0.00, -1.00, 400.0, 314.0)">p</text><text xml:space="preserve" font-family="OperatorMono-Medium" font-size="32.0" fill="#F99157" transform="matrix(1.00, 0.00, -0.00, -1.00, 417.6, 314.0)">r</text><text xml:space="preserve" font-family="OperatorMono-Medium" font-size="32.0" fill="#F99157" transform="matrix(1.00, 0.00, -0.00, -1.00, 435.2, 314.0)">i</text><text xml:space="preserve" font-family="OperatorMono-Medium" font-size="32.0" fill="#F99157" transform="matrix(1.00, 0.00, -0.00, -1.00, 452.8, 314.0)">n</text><text xml:space="preserve" font-family="OperatorMono-Medium" font-size="32.0" fill="#F99157" transform="matrix(1.00, 0.00, -0.00, -1.00, 470.4, 314.0)">g</text><text xml:space="preserve" font-family="OperatorMono-Medium" font-size="32.0" fill="#F99157" transform="matrix(1.00, 0.00, -0.00, -1.00, 488.0, 314.0)">g</text><text xml:space="preserve" font-family="OperatorMono-Medium" font-size="32.0" fill="#F99157" transform="matrix(1.00, 0.00, -0.00, -1.00, 505.6, 314.0)">r</text><text xml:space="preserve" font-family="OperatorMono-Medium" font-size="32.0" fill="#F99157" transform="matrix(1.00, 0.00, -0.00, -1.00, 523.2, 314.0)">e</text><text xml:space="preserve" font-family="OperatorMono-Medium" font-size="32.0" fill="#F99157" transform="matrix(1.00, 0.00, -0.00, -1.00, 540.8, 314.0)">e</text><text xml:space="preserve" font-family="OperatorMono-Medium" font-size="32.0" fill="#F99157" transform="matrix(1.00, 0.00, -0.00, -1.00, 558.4, 314.0)">n</text><text xml:space="preserve" font-family="OperatorMono-Medium" font-size="32.0" fill="#5EB3B3" transform="matrix(1.00, 0.00, -0.00, -1.00, 576.0, 314.0)">;</text><text xml:space="preserve" font-family="OperatorMono-Medium" font-size="32.0" fill="#5EB3B3" transform="matrix(1.00, 0.00, -0.00, -1.00, 593.6, 314.0)"> </text><text xml:space="preserve" font-family="OperatorMono-Medium" font-size="32.0" fill="#5EB3B3" transform="matrix(1.00, 0.00, -0.00, -1.00, 48.0, 275.0)"> </text><text xml:space="preserve" font-family="OperatorMono-Medium" font-size="32.0" fill="#FAC763" transform="matrix(1.00, 0.00, -0.00, -1.00, 65.6, 275.0)">c</text><text xml:space="preserve" font-family="OperatorMono-Medium" font-size="32.0" fill="#FAC763" transform="matrix(1.00, 0.00, -0.00, -1.00, 83.2, 275.0)">o</text><text xml:space="preserve" font-family="OperatorMono-Medium" font-size="32.0" fill="#FAC763" transform="matrix(1.00, 0.00, -0.00, -1.00, 100.8, 275.0)">l</text><text xml:space="preserve" font-family="OperatorMono-Medium" font-size="32.0" fill="#FAC763" transform="matrix(1.00, 0.00, -0.00, -1.00, 118.4, 275.0)">o</text><text xml:space="preserve" font-family="OperatorMono-Medium" font-size="32.0" fill="#FAC763" transform="matrix(1.00, 0.00, -0.00, -1.00, 136.0, 275.0)">r</text><text xml:space="preserve" font-family="OperatorMono-Medium" font-size="32.0" fill="#FAC763" transform="matrix(1.00, 0.00, -0.00, -1.00, 153.6, 275.0)">:</text><text xml:space="preserve" font-family="OperatorMono-Medium" font-size="32.0" fill="#FAC763" transform="matrix(1.00, 0.00, -0.00, -1.00, 171.2, 275.0)"> </text><text xml:space="preserve" font-family="OperatorMono-Medium" font-size="32.0" fill="#5EB3B3" transform="matrix(1.00, 0.00, -0.00, -1.00, 188.8, 275.0)">$</text><text xml:space="preserve" font-family="OperatorMono-Medium" font-size="32.0" fill="#5EB3B3" transform="matrix(1.00, 0.00, -0.00, -1.00, 206.4, 275.0)">{</text><text xml:space="preserve" font-family="OperatorMono-Medium" font-size="32.0" fill="#5EB3B3" transform="matrix(1.00, 0.00, -0.00, -1.00, 224.0, 275.0)">(</text><text xml:space="preserve" font-family="OperatorMono-Medium" font-size="32.0" fill="#F99157" transform="matrix(1.00, 0.00, -0.00, -1.00, 241.6, 275.0)">p</text><text xml:space="preserve" font-family="OperatorMono-Medium" font-size="32.0" fill="#F99157" transform="matrix(1.00, 0.00, -0.00, -1.00, 259.2, 275.0)">r</text><text xml:space="preserve" font-family="OperatorMono-Medium" font-size="32.0" fill="#F99157" transform="matrix(1.00, 0.00, -0.00, -1.00, 276.8, 275.0)">o</text><text xml:space="preserve" font-family="OperatorMono-Medium" font-size="32.0" fill="#F99157" transform="matrix(1.00, 0.00, -0.00, -1.00, 294.4, 275.0)">p</text><text xml:space="preserve" font-family="OperatorMono-Medium" font-size="32.0" fill="#F99157" transform="matrix(1.00, 0.00, -0.00, -1.00, 312.0, 275.0)">s</text><text xml:space="preserve" font-family="OperatorMono-Medium" font-size="32.0" fill="#5EB3B3" transform="matrix(1.00, 0.00, -0.00, -1.00, 329.6, 275.0)">)</text><text xml:space="preserve" font-family="OperatorMono-Medium" font-size="32.0" fill="#FAC763" transform="matrix(1.00, 0.00, -0.00, -1.00, 347.2, 275.0)"> </text><text xml:space="preserve" font-family="OperatorMono-Medium" font-size="32.0" fill="#C494C4" transform="matrix(1.00, 0.00, -0.00, -1.00, 364.8, 275.0)">=</text><text xml:space="preserve" font-family="OperatorMono-Medium" font-size="32.0" fill="#C494C4" transform="matrix(1.00, 0.00, -0.00, -1.00, 382.4, 275.0)">&gt;</text><text xml:space="preserve" font-family="OperatorMono-Medium" font-size="32.0" fill="#FAC763" transform="matrix(1.00, 0.00, -0.00, -1.00, 400.0, 275.0)"> </text><text xml:space="preserve" font-family="OperatorMono-Medium" font-size="32.0" fill="#FEFFFF" transform="matrix(1.00, 0.00, -0.00, -1.00, 417.6, 275.0)">p</text><text xml:space="preserve" font-family="OperatorMono-Medium" font-size="32.0" fill="#FEFFFF" transform="matrix(1.00, 0.00, -0.00, -1.00, 435.2, 275.0)">r</text><text xml:space="preserve" font-family="OperatorMono-Medium" font-size="32.0" fill="#FEFFFF" transform="matrix(1.00, 0.00, -0.00, -1.00, 452.8, 275.0)">o</text><text xml:space="preserve" font-family="OperatorMono-Medium" font-size="32.0" fill="#FEFFFF" transform="matrix(1.00, 0.00, -0.00, -1.00, 470.4, 275.0)">p</text><text xml:space="preserve" font-family="OperatorMono-Medium" font-size="32.0" fill="#FEFFFF" transform="matrix(1.00, 0.00, -0.00, -1.00, 488.0, 275.0)">s</text><text xml:space="preserve" font-family="OperatorMono-Medium" font-size="32.0" fill="#FEFFFF" transform="matrix(1.00, 0.00, -0.00, -1.00, 505.6, 275.0)">.</text><text xml:space="preserve" font-family="OperatorMono-Medium" font-size="32.0" fill="#FEFFFF" transform="matrix(1.00, 0.00, -0.00, -1.00, 523.2, 275.0)">p</text><text xml:space="preserve" font-family="OperatorMono-Medium" font-size="32.0" fill="#FEFFFF" transform="matrix(1.00, 0.00, -0.00, -1.00, 540.8, 275.0)">r</text><text xml:space="preserve" font-family="OperatorMono-Medium" font-size="32.0" fill="#FEFFFF" transform="matrix(1.00, 0.00, -0.00, -1.00, 558.4, 275.0)">i</text><text xml:space="preserve" font-family="OperatorMono-Medium" font-size="32.0" fill="#FEFFFF" transform="matrix(1.00, 0.00, -0.00, -1.00, 576.0, 275.0)">m</text><text xml:space="preserve" font-family="OperatorMono-Medium" font-size="32.0" fill="#FEFFFF" transform="matrix(1.00, 0.00, -0.00, -1.00, 593.6, 275.0)">a</text><text xml:space="preserve" font-family="OperatorMono-Medium" font-size="32.0" fill="#FEFFFF" transform="matrix(1.00, 0.00, -0.00, -1.00, 611.2, 275.0)">r</text><text xml:space="preserve" font-family="OperatorMono-Medium" font-size="32.0" fill="#FEFFFF" transform="matrix(1.00, 0.00, -0.00, -1.00, 628.8, 275.0)">y</text><text xml:space="preserve" font-family="OperatorMono-Medium" font-size="32.0" fill="#FAC763" transform="matrix(1.00, 0.00, -0.00, -1.00, 646.4, 275.0)"> </text><text xml:space="preserve" font-family="OperatorMono-Medium" font-size="32.0" fill="#5EB3B3" transform="matrix(1.00, 0.00, -0.00, -1.00, 664.0, 275.0)">?</text><text xml:space="preserve" font-family="OperatorMono-Medium" font-size="32.0" fill="#FAC763" transform="matrix(1.00, 0.00, -0.00, -1.00, 681.6, 275.0)"> </text><text xml:space="preserve" font-family="OperatorMono-Medium" font-size="32.0" fill="#99C794" transform="matrix(1.00, 0.00, -0.00, -1.00, 699.2, 275.0)">‘</text><text xml:space="preserve" font-family="OperatorMono-Medium" font-size="32.0" fill="#99C794" transform="matrix(1.00, 0.00, -0.00, -1.00, 716.8, 275.0)">b</text><text xml:space="preserve" font-family="OperatorMono-Medium" font-size="32.0" fill="#99C794" transform="matrix(1.00, 0.00, -0.00, -1.00, 734.4, 275.0)">l</text><text xml:space="preserve" font-family="OperatorMono-Medium" font-size="32.0" fill="#99C794" transform="matrix(1.00, 0.00, -0.00, -1.00, 752.0, 275.0)">u</text><text xml:space="preserve" font-family="OperatorMono-Medium" font-size="32.0" fill="#99C794" transform="matrix(1.00, 0.00, -0.00, -1.00, 769.6, 275.0)">e</text><text xml:space="preserve" font-family="OperatorMono-Medium" font-size="32.0" fill="#99C794" transform="matrix(1.00, 0.00, -0.00, -1.00, 787.2, 275.0)">’</text><text xml:space="preserve" font-family="OperatorMono-Medium" font-size="32.0" fill="#FAC763" transform="matrix(1.00, 0.00, -0.00, -1.00, 804.8, 275.0)"> </text><text xml:space="preserve" font-family="OperatorMono-Medium" font-size="32.0" fill="#5EB3B3" transform="matrix(1.00, 0.00, -0.00, -1.00, 822.4, 275.0)">:</text><text xml:space="preserve" font-family="OperatorMono-Medium" font-size="32.0" fill="#FAC763" transform="matrix(1.00, 0.00, -0.00, -1.00, 840.0, 275.0)"> </text><text xml:space="preserve" font-family="OperatorMono-Medium" font-size="32.0" fill="#99C794" transform="matrix(1.00, 0.00, -0.00, -1.00, 857.6, 275.0)">‘</text><text xml:space="preserve" font-family="OperatorMono-Medium" font-size="32.0" fill="#99C794" transform="matrix(1.00, 0.00, -0.00, -1.00, 875.2, 275.0)">r</text><text xml:space="preserve" font-family="OperatorMono-Medium" font-size="32.0" fill="#99C794" transform="matrix(1.00, 0.00, -0.00, -1.00, 892.8, 275.0)">e</text><text xml:space="preserve" font-family="OperatorMono-Medium" font-size="32.0" fill="#99C794" transform="matrix(1.00, 0.00, -0.00, -1.00, 910.4, 275.0)">d</text><text xml:space="preserve" font-family="OperatorMono-Medium" font-size="32.0" fill="#99C794" transform="matrix(1.00, 0.00, -0.00, -1.00, 928.0, 275.0)">’</text><text xml:space="preserve" font-family="OperatorMono-Medium" font-size="32.0" fill="#FAC763" transform="matrix(1.00, 0.00, -0.00, -1.00, 945.6, 275.0)"> </text><text xml:space="preserve" font-family="OperatorMono-Medium" font-size="32.0" fill="#5EB3B3" transform="matrix(1.00, 0.00, -0.00, -1.00, 963.2, 275.0)">}</text><text xml:space="preserve" font-family="OperatorMono-Medium" font-size="32.0" fill="#5EB3B3" transform="matrix(1.00, 0.00, -0.00, -1.00, 980.8, 275.0)"> </text><text xml:space="preserve" font-family="OperatorMono-Medium" font-size="32.0" fill="#99C794" transform="matrix(1.00, 0.00, -0.00, -1.00, 30.0, 236.0)">`</text><text xml:space="preserve" font-family="OperatorMono-Medium" font-size="32.0" fill="#5EB3B3" transform="matrix(1.00, 0.00, -0.00, -1.00, 47.6, 236.0)">;</text></g></svg>